<?xml version="1.0" encoding="utf-8"?>
<!-- Generator: Adobe Illustrator 22.0.1, SVG Export Plug-In . SVG Version: 6.00 Build 0)  -->
<svg version="1.1" id="Layer_1" xmlns="http://www.w3.org/2000/svg" xmlns:xlink="http://www.w3.org/1999/xlink" x="0px" y="0px"
	 viewBox="0 0 24 24" style="enable-background:new 0 0 24 24;" xml:space="preserve">
<style type="text/css">
	.st0{fill:#221A1C;}
	.st1{fill:#231F20;}
</style>
<path class="st1" d="M21.98906,11.49825c0,0.15186-0.06934,0.2959-0.1875,0.39062l-4.99609,3.99219
	c-0.09277,0.07373-0.20312,0.10938-0.3125,0.10938c-0.14648,0-0.29199-0.06445-0.39062-0.18799
	c-0.17285-0.21582-0.1377-0.53027,0.07812-0.70264l3.88202-3.10156H9.99492v-1h10.06818l-3.88654-3.1084
	c-0.21582-0.17285-0.25-0.4873-0.07812-0.70312c0.17285-0.21436,0.48633-0.24951,0.70312-0.07812l5,3.99902
	C21.91972,11.20284,21.98906,11.3464,21.98906,11.49825z M3.00175,3.98653h6.99512v-1H2.00175v18.00586h7.99512v-1H3.00175V3.98653z
	"/>
</svg>
