<?xml version="1.0" encoding="utf-8"?>
<!-- Generator: Adobe Illustrator 22.0.1, SVG Export Plug-In . SVG Version: 6.00 Build 0)  -->
<svg version="1.1" id="Layer_1" xmlns="http://www.w3.org/2000/svg" xmlns:xlink="http://www.w3.org/1999/xlink" x="0px" y="0px"
	 viewBox="0 0 24 24" style="enable-background:new 0 0 24 24;" xml:space="preserve">
<style type="text/css">
	.st0{fill:#221A1C;}
	.st1{fill:#231F20;}
</style>
<path class="st1" d="M22.00598,13.99271c0,3.30908-2.69189,6.00098-6.00098,6.00098h-6v-0.99512h6
	c2.76025,0,5.00586-2.24561,5.00586-5.00586S18.76526,8.98685,16.005,8.98685H3.65137l3.21106,3.15869
	c0.19678,0.19385,0.19971,0.51025,0.00586,0.70703c-0.09766,0.09961-0.22705,0.14941-0.35645,0.14941
	c-0.12646,0-0.25342-0.04785-0.35059-0.14355L2.20032,8.96146c-0.27393-0.28711-0.27246-0.71777-0.0083-0.99219l3.97217-3.83838
	c0.19971-0.19141,0.51562-0.18555,0.70703,0.01172C7.06311,4.34134,7.05774,4.65775,6.8595,4.84964L3.60742,7.99173H16.005
	C19.31409,7.99173,22.00598,10.68362,22.00598,13.99271z M7.00775,19.9902h1v-1h-1V19.9902z"/>
</svg>
