<svg id="Layer_1" data-name="Layer 1" xmlns="http://www.w3.org/2000/svg" viewBox="0 0 24 24"><defs><style>.cls-1{fill:#231f20;}</style></defs><title>Icono_Balanza +pesable_24x24_Janis picking</title><path class="cls-1" d="M3.8,7.56a.37.37,0,0,1,.66-.36l.3.55a1.19,1.19,0,0,0,1.1.76h7.8a1.18,1.18,0,0,0,1.06-.66L15,7.21a.37.37,0,1,1,.67.33l-.31.63a1.93,1.93,0,0,1-1.73,1.08H5.86A1.92,1.92,0,0,1,4.08,8.08ZM9.36,10a.38.38,0,1,0,0,.76h.77a.38.38,0,1,0,0-.76ZM12,16.76a2.25,2.25,0,1,1-2.25-2.25A2.25,2.25,0,0,1,12,16.76Zm-.75,0a1.5,1.5,0,1,0-1.5,1.5A1.5,1.5,0,0,0,11.25,16.76Zm5.24,3.87A1.15,1.15,0,0,1,15.36,22H4.14A1.15,1.15,0,0,1,3,20.63l1.9-8.22A1.15,1.15,0,0,1,6,11.51h7.49a1.15,1.15,0,0,1,1.13.93Zm-.73.15-1.83-8.2a.4.4,0,0,0-.39-.33H6a.4.4,0,0,0-.39.32l-1.9,8.22a.4.4,0,0,0,.39.47H15.36a.4.4,0,0,0,.39-.48ZM18.35,4.66V1.82h-.69V4.66H14.82v.69h2.84V8.17h.69V5.34h2.83V4.66Z"/></svg>