<?xml version="1.0" encoding="utf-8"?>
<!-- Generator: Adobe Illustrator 22.0.1, SVG Export Plug-In . SVG Version: 6.00 Build 0)  -->
<svg version="1.1" id="Layer_1" xmlns="http://www.w3.org/2000/svg" xmlns:xlink="http://www.w3.org/1999/xlink" x="0px" y="0px"
	 viewBox="0 0 24 24" style="enable-background:new 0 0 24 24;" xml:space="preserve">
<style type="text/css">
	.st0{fill:#221A1C;}
	.st1{fill:#231F20;}
</style>
<path d="M20.9936,20.1672L18.55171,9.23214C18.41059,8.51632,17.77827,7.9963,17.0478,7.9963H7.05513
	c-0.72314,0-1.35449,0.51416-1.49854,1.21094l-2.52979,10.9585c-0.09375,0.45312,0.02051,0.91895,0.31299,1.27783
	c0.29199,0.35889,0.7251,0.56494,1.18799,0.56494h14.96484c0.46045,0,0.89209-0.2041,1.18408-0.55957
	C20.96919,21.09347,21.0854,20.63058,20.9936,20.1672z M19.90425,20.81417c-0.10156,0.12354-0.25146,0.19434-0.41162,0.19434
	H4.52778c-0.16064,0-0.31104-0.07129-0.4126-0.19629c-0.10205-0.125-0.1416-0.28662-0.11133-0.43311l2.52979-10.9585
	C6.58442,9.17501,6.80366,8.9963,7.05513,8.9963h9.99268c0.25391,0,0.47363,0.18066,0.52539,0.44141l2.44189,10.93506
	C20.04634,20.5295,20.00581,20.69063,19.90425,20.81417z M4.0688,2.73165C3.93599,2.48946,4.02485,2.18526,4.26704,2.05294
	c0.24219-0.13379,0.54639-0.04395,0.67871,0.19824l0.40479,0.73926c0.26709,0.6333,0.83447,1.01172,1.46826,1.01172h10.40772
	c0.59668,0,1.1499-0.34717,1.40967-0.88477l0.41553-0.84619c0.12158-0.24707,0.42188-0.3501,0.66895-0.22852
	c0.24805,0.12158,0.3501,0.4209,0.22852,0.66895l-0.41406,0.84375c-0.42383,0.87793-1.33057,1.44678-2.30859,1.44678H6.8188
	c-1.03906,0-1.96875-0.61963-2.36816-1.5791L4.0688,2.73165z M12.0102,12.00118c-1.6543,0-3,1.3457-3,3
	c0,1.65576,1.3457,3.00244,3,3.00244s3-1.34668,3-3.00244C15.0102,13.34688,13.6645,12.00118,12.0102,12.00118z M12.0102,17.00362
	c-1.10303,0-2-0.89844-2-2.00244c0-1.10303,0.89697-2,2-2s2,0.89697,2,2C14.0102,16.10518,13.11323,17.00362,12.0102,17.00362z
	 M12.51179,5.9963c0.27936,0,0.50586,0.2265,0.50586,0.50586c0,0.27942-0.2265,0.50592-0.50586,0.50592h-1.02356
	c-0.27936,0-0.50586-0.2265-0.50586-0.50592c0-0.27936,0.2265-0.50586,0.50586-0.50586H12.51179z"/>
</svg>
