<?xml version="1.0" encoding="UTF-8"?>
<svg width="74px" height="74px" viewBox="0 0 74 74" version="1.1" xmlns="http://www.w3.org/2000/svg" xmlns:xlink="http://www.w3.org/1999/xlink">
    <!-- Generator: Sketch 59.1 (86144) - https://sketch.com -->
    <title>basket_dashed</title>
    <desc>Created with Sketch.</desc>
    <g id="1024---App-PICKING---Flujo-normal" stroke="none" stroke-width="1" fill="none" fill-rule="evenodd">
        <path d="M36.7714903,65.2808814 C37.1857039,65.2808814 37.5214903,65.6166678 37.5214903,66.0308814 C37.5214903,66.4105772 37.2393365,66.7243724 36.8732609,66.7740348 L36.7714903,66.7808814 L35.7714903,66.7808814 C35.3572768,66.7808814 35.0214903,66.445095 35.0214903,66.0308814 C35.0214903,65.6511856 35.3036442,65.3373904 35.6697198,65.287728 L35.7714903,65.2808814 L36.7714903,65.2808814 Z M56.7714903,65.2808814 C57.1857039,65.2808814 57.5214903,65.6166678 57.5214903,66.0308814 C57.5214903,66.4105772 57.2393365,66.7243724 56.8732609,66.7740348 L56.7714903,66.7808814 L55.7714903,66.7808814 C55.3572768,66.7808814 55.0214903,66.445095 55.0214903,66.0308814 C55.0214903,65.6511856 55.3036442,65.3373904 55.6697198,65.287728 L55.7714903,65.2808814 L56.7714903,65.2808814 Z M51.7714903,65.2808814 C52.1857039,65.2808814 52.5214903,65.6166678 52.5214903,66.0308814 C52.5214903,66.4105772 52.2393365,66.7243724 51.8732609,66.7740348 L51.7714903,66.7808814 L50.7714903,66.7808814 C50.3572768,66.7808814 50.0214903,66.445095 50.0214903,66.0308814 C50.0214903,65.6511856 50.3036442,65.3373904 50.6697198,65.287728 L50.7714903,65.2808814 L51.7714903,65.2808814 Z M46.7714903,65.2808814 C47.1857039,65.2808814 47.5214903,65.6166678 47.5214903,66.0308814 C47.5214903,66.4105772 47.2393365,66.7243724 46.8732609,66.7740348 L46.7714903,66.7808814 L45.7714903,66.7808814 C45.3572768,66.7808814 45.0214903,66.445095 45.0214903,66.0308814 C45.0214903,65.6511856 45.3036442,65.3373904 45.6697198,65.287728 L45.7714903,65.2808814 L46.7714903,65.2808814 Z M41.7714903,65.2808814 C42.1857039,65.2808814 42.5214903,65.6166678 42.5214903,66.0308814 C42.5214903,66.4105772 42.2393365,66.7243724 41.8732609,66.7740348 L41.7714903,66.7808814 L40.7714903,66.7808814 C40.3572768,66.7808814 40.0214903,66.445095 40.0214903,66.0308814 C40.0214903,65.6511856 40.3036442,65.3373904 40.6697198,65.287728 L40.7714903,65.2808814 L41.7714903,65.2808814 Z M31.7714903,65.2808814 C32.1857039,65.2808814 32.5214903,65.6166678 32.5214903,66.0308814 C32.5214903,66.4105772 32.2393365,66.7243724 31.8732609,66.7740348 L31.7714903,66.7808814 L30.7714903,66.7808814 C30.3572768,66.7808814 30.0214903,66.445095 30.0214903,66.0308814 C30.0214903,65.6511856 30.3036442,65.3373904 30.6697198,65.287728 L30.7714903,65.2808814 L31.7714903,65.2808814 Z M26.7714903,65.2808814 C27.1857039,65.2808814 27.5214903,65.6166678 27.5214903,66.0308814 C27.5214903,66.4105772 27.2393365,66.7243724 26.8732609,66.7740348 L26.7714903,66.7808814 L25.7714903,66.7808814 C25.3572768,66.7808814 25.0214903,66.445095 25.0214903,66.0308814 C25.0214903,65.6511856 25.3036442,65.3373904 25.6697198,65.287728 L25.7714903,65.2808814 L26.7714903,65.2808814 Z M21.7714903,65.2808814 C22.1857039,65.2808814 22.5214903,65.6166678 22.5214903,66.0308814 C22.5214903,66.4105772 22.2393365,66.7243724 21.8732609,66.7740348 L21.7714903,66.7808814 L20.7714903,66.7808814 C20.3572768,66.7808814 20.0214903,66.445095 20.0214903,66.0308814 C20.0214903,65.6511856 20.3036442,65.3373904 20.6697198,65.287728 L20.7714903,65.2808814 L21.7714903,65.2808814 Z M16.7714903,65.2808814 C17.1857039,65.2808814 17.5214903,65.6166678 17.5214903,66.0308814 C17.5214903,66.4105772 17.2393365,66.7243724 16.8732609,66.7740348 L16.7714903,66.7808814 L15.7714903,66.7808814 C15.3572768,66.7808814 15.0214903,66.445095 15.0214903,66.0308814 C15.0214903,65.6511856 15.3036442,65.3373904 15.6697198,65.287728 L15.7714903,65.2808814 L16.7714903,65.2808814 Z M62.2578461,64.9379737 C62.5122273,65.2648729 62.4534398,65.7360938 62.1265405,65.990475 C61.7957928,66.2478509 61.4238564,66.4484986 61.0260024,66.5831943 C60.6336639,66.7160226 60.2079321,66.5056481 60.0751037,66.1133096 C59.9533444,65.753666 60.1199708,65.3659626 60.450788,65.2015313 L60.5449884,65.1624109 L60.7208467,65.0945012 C60.8935508,65.0193246 61.0563567,64.9226054 61.2053449,64.8066682 C61.5322441,64.552287 62.0034649,64.6110745 62.2578461,64.9379737 Z M11.5967924,64.5306624 C11.7646813,64.7183223 11.9631087,64.876789 12.1832484,64.9989914 C12.5454043,65.2000287 12.6760166,65.656587 12.4749793,66.0187428 C12.2739419,66.3808987 11.8173836,66.511511 11.4552278,66.3104737 C11.0886353,66.1069735 10.7584251,65.8432634 10.478879,65.5307972 C10.2026994,65.2220939 10.2290651,64.7479527 10.5377683,64.4717731 C10.8464716,64.1955935 11.3206129,64.2219591 11.5967924,64.5306624 Z M63.5952718,60.0617233 C63.9650808,60.1478055 64.2067371,60.4937541 64.1721121,60.8615568 L64.1557076,60.9622296 L63.928994,61.936191 C63.8350862,62.3396191 63.4319158,62.5905348 63.0284877,62.4966269 C62.6586787,62.4105447 62.4170224,62.0645961 62.4516474,61.6967935 L62.4680518,61.5961206 L62.6947654,60.6221592 C62.7886733,60.2187311 63.1918437,59.9678154 63.5952718,60.0617233 Z M10.3071111,59.9798524 L10.3352795,60.0778864 L10.5463027,61.0553674 C10.6337114,61.4602533 10.3763453,61.8593369 9.97145935,61.9467456 C9.60031393,62.0268702 9.23404406,61.8172882 9.10824954,61.4699362 L9.08008115,61.3719022 L8.86905793,60.3944212 C8.78164925,59.9895353 9.0390154,59.5904517 9.44390131,59.503043 C9.81504672,59.4229184 10.1813166,59.6325004 10.3071111,59.9798524 Z M64.7288398,55.1919159 C65.0986488,55.2779981 65.3403051,55.6239468 65.3056801,55.9917494 L65.2892757,56.0924222 L65.0625621,57.0663837 C64.9686542,57.4698118 64.5654838,57.7207275 64.1620558,57.6268196 C63.7922467,57.5407374 63.5505904,57.1947888 63.5852155,56.8269861 L63.6016199,56.7263133 L63.8283335,55.7523518 C63.9222413,55.3489238 64.3254117,55.0980081 64.7288398,55.1919159 Z M9.25199504,55.0924471 L9.28016342,55.1904811 L9.49118664,56.1679622 C9.57859532,56.5728481 9.32122917,56.9719317 8.91634327,57.0593404 C8.54519785,57.139465 8.17892797,56.929883 8.05313345,56.582531 L8.02496507,56.484497 L7.81394185,55.507016 C7.72653317,55.10213 7.98389932,54.7030464 8.38878523,54.6156378 C8.75993064,54.5355131 9.12620052,54.7450951 9.25199504,55.0924471 Z M65.8624078,50.3221086 C66.2322169,50.4081908 66.4738732,50.7541394 66.4392482,51.1219421 L66.4228437,51.2226149 L66.1961301,52.1965764 C66.1022223,52.6000044 65.6990519,52.8509201 65.2956238,52.7570123 C64.9258148,52.6709301 64.6841585,52.3249814 64.7187835,51.9571788 L64.7351879,51.856506 L64.9619015,50.8825445 C65.0558094,50.4791164 65.4589798,50.2282007 65.8624078,50.3221086 Z M8.19687896,50.2050419 L8.22504734,50.3030759 L8.43607056,51.2805569 C8.52347924,51.6854428 8.26611309,52.0845264 7.86122718,52.1719351 C7.49008177,52.2520597 7.12381189,52.0424777 6.99801737,51.6951257 L6.96984899,51.5970918 L6.75882577,50.6196107 C6.67141709,50.2147248 6.92878324,49.8156412 7.33366914,49.7282325 C7.70481456,49.6481079 8.07108444,49.8576899 8.19687896,50.2050419 Z M66.9959759,45.4523013 C67.3657849,45.5383835 67.6074412,45.8843321 67.5728162,46.2521347 L67.5564118,46.3528076 L67.3296982,47.326769 C67.2357903,47.7301971 66.8326199,47.9811128 66.4291919,47.8872049 C66.0593828,47.8011227 65.8177265,47.4551741 65.8523515,47.0873714 L65.868756,46.9866986 L66.0954696,46.0127372 C66.1893774,45.6093091 66.5925478,45.3583934 66.9959759,45.4523013 Z M7.14176287,45.3176366 L7.16993126,45.4156706 L7.38095448,46.3931517 C7.46836316,46.7980376 7.21099701,47.1971212 6.8061111,47.2845299 C6.43496569,47.3646545 6.06869581,47.1550725 5.94290129,46.8077205 L5.9147329,46.7096865 L5.70370969,45.7322055 C5.61630101,45.3273195 5.87366715,44.9282359 6.27855306,44.8408273 C6.64969848,44.7607026 7.01596835,44.9702846 7.14176287,45.3176366 Z M68.1295439,40.5824939 C68.499353,40.6685761 68.7410093,41.0145248 68.7063843,41.3823274 L68.6899798,41.4830002 L68.4632662,42.4569617 C68.3693584,42.8603897 67.966188,43.1113054 67.5627599,43.0173976 C67.1929509,42.9313154 66.9512946,42.5853667 66.9859196,42.2175641 L67.002324,42.1168913 L67.2290376,41.1429298 C67.3229455,40.7395018 67.7261159,40.4885861 68.1295439,40.5824939 Z M6.08664679,40.4302314 L6.11481518,40.5282654 L6.3258384,41.5057464 C6.41324708,41.9106323 6.15588093,42.309716 5.75099502,42.3971246 C5.37984961,42.4772493 5.01357973,42.2676673 4.88778521,41.9203153 L4.85961682,41.8222813 L4.64859361,40.8448002 C4.56118493,40.4399143 4.81855107,40.0408307 5.22343698,39.953422 C5.5945824,39.8732974 5.96085227,40.0828794 6.08664679,40.4302314 Z M69.263112,35.7126866 C69.632921,35.7987688 69.8745773,36.1447174 69.8399523,36.5125201 L69.8235479,36.6131929 L69.5968343,37.5871544 C69.5029264,37.9905824 69.099756,38.2414981 68.696328,38.1475903 C68.3265189,38.0615081 68.0848626,37.7155594 68.1194876,37.3477568 L68.1358921,37.247084 L68.3626057,36.2731225 C68.4565135,35.8696944 68.8596839,35.6187787 69.263112,35.7126866 Z M5.03153071,35.5428261 L5.0596991,35.6408601 L5.27072232,36.6183412 C5.35813099,37.0232271 5.10076485,37.4223107 4.69587894,37.5097194 C4.32473353,37.589844 3.95846365,37.380262 3.83266913,37.03291 L3.80450074,36.934876 L3.59347753,35.957395 C3.50606885,35.5525091 3.76343499,35.1534254 4.1683209,35.0660168 C4.53946632,34.9858921 4.90573619,35.1954741 5.03153071,35.5428261 Z M70.39668,30.8428793 C70.7664891,30.9289615 71.0081454,31.2749101 70.9735203,31.6427127 L70.9571159,31.7433856 L70.7304023,32.717347 C70.6364945,33.1207751 70.233324,33.3716908 69.829896,33.2777829 C69.460087,33.1917007 69.2184306,32.8457521 69.2530557,32.4779494 L69.2694601,32.3772766 L69.4961737,31.4033151 C69.5900816,30.9998871 69.993252,30.7489714 70.39668,30.8428793 Z M3.97641463,30.6554209 L4.00458302,30.7534549 L4.21560623,31.7309359 C4.30301491,32.1358218 4.04564877,32.5349055 3.64076286,32.6223141 C3.26961744,32.7024388 2.90334757,32.4928568 2.77755305,32.1455048 L2.74938466,32.0474708 L2.53836144,31.0699897 C2.45095277,30.6651038 2.70831891,30.2660202 3.11320482,30.1786115 C3.48435023,30.0984869 3.85062011,30.3080689 3.97641463,30.6554209 Z M24.9523419,7.29932768 C25.2915133,7.47000751 25.4449846,7.86310394 25.3247893,8.21243296 L25.2851576,8.30641939 L15.7501951,27.2526057 C16.3795808,27.8032527 16.7771039,28.6123647 16.7771039,29.5142814 C16.7771039,31.1722814 15.4321039,32.5172814 13.7731039,32.5172814 C12.1151039,32.5172814 10.7701039,31.1722814 10.7701039,29.5142814 C10.7701039,27.8552814 12.1151039,26.5102814 13.7731039,26.5102814 C13.9921173,26.5102814 14.2056582,26.5337221 14.4113547,26.5782314 L23.9452502,7.6321434 C24.1314463,7.26213818 24.5823366,7.11313151 24.9523419,7.29932768 Z M49.8383941,7.54431232 L49.8902576,7.6321434 L59.423953,26.5782314 C59.6296495,26.5337221 59.8431905,26.5102814 60.0622039,26.5102814 C61.7212039,26.5102814 63.0662039,27.8552814 63.0662039,29.5142814 C63.0662039,31.1722814 61.7212039,32.5172814 60.0622039,32.5172814 C58.4032039,32.5172814 57.0582039,31.1722814 57.0582039,29.5142814 C57.0582039,28.6127334 57.455402,27.8039142 58.084341,27.2532811 L48.5503502,8.30641939 C48.364154,7.93641417 48.5131607,7.48552386 48.8831659,7.29932768 C49.2223373,7.12864786 49.6294747,7.23963153 49.8383941,7.54431232 Z M13.7733039,28.1402814 C13.0143039,28.1402814 12.4003039,28.7552814 12.4003039,29.5142814 C12.4003039,30.2732814 13.0143039,30.8882814 13.7733039,30.8882814 C14.5333039,30.8882814 15.1473039,30.2732814 15.1473039,29.5142814 C15.1473039,28.7552814 14.5333039,28.1402814 13.7733039,28.1402814 Z M60.0623039,28.1402814 C59.3033039,28.1402814 58.6883039,28.7552814 58.6883039,29.5142814 C58.6883039,30.2732814 59.3033039,30.8882814 60.0623039,30.8882814 C60.8213039,30.8882814 61.4363039,30.2732814 61.4363039,29.5142814 C61.4363039,28.7552814 60.8213039,28.1402814 60.0623039,28.1402814 Z M71.5302481,25.9730719 C71.9000571,26.0591541 72.1417134,26.4051028 72.1070884,26.7729054 L72.090684,26.8735782 L71.8639703,27.8475397 C71.7700625,28.2509677 71.3668921,28.5018834 70.963464,28.4079756 C70.593655,28.3218934 70.3519987,27.9759447 70.3866237,27.6081421 L70.4030281,27.5074693 L70.6297418,26.5335078 C70.7236496,26.1300798 71.12682,25.8791641 71.5302481,25.9730719 Z M2.92129855,25.7680156 L2.94946694,25.8660496 L3.16049015,26.8435307 C3.24789883,27.2484166 2.99053269,27.6475002 2.58564678,27.7349089 C2.21450136,27.8150335 1.84823149,27.6054515 1.72243697,27.2580995 L1.69426858,27.1600655 L1.48324536,26.1825845 C1.39583668,25.7776986 1.65320283,25.3786149 2.05808874,25.2912063 C2.42923415,25.2110816 2.79550403,25.4206636 2.92129855,25.7680156 Z M72.2222583,21.4138154 C72.4456842,21.768704 72.6086967,22.1586689 72.7031137,22.5678425 C72.7962464,22.9714502 72.5445566,23.3741379 72.1409489,23.4672705 C71.7373412,23.5604032 71.3346536,23.3087134 71.2415209,22.9051057 C71.1991676,22.7215596 71.1335702,22.5440783 71.0467257,22.3767587 L70.9528729,22.212978 L70.9007074,22.1148552 C70.753356,21.7802572 70.8693197,21.3793246 71.1879843,21.178704 C71.5385154,20.9580214 72.0015756,21.0633021 72.2222583,21.4138154 Z M3.14576343,20.7465675 C3.43709775,21.0410113 3.43457696,21.5158784 3.14013309,21.8072127 C3.00557257,21.9403521 2.88812062,22.0897864 2.7907428,22.2514898 L2.70016619,22.4171339 L2.64896796,22.5053544 C2.44235728,22.8116055 2.03607029,22.925663 1.69561858,22.7575514 C1.32421671,22.574157 1.17180659,22.1244057 1.35520105,21.7530038 C1.54051574,21.3777132 1.78755387,21.0353589 2.08511821,20.7409371 C2.37956207,20.4496028 2.85442912,20.4521236 3.14576343,20.7465675 Z M62.9500039,19.6588814 C63.3642174,19.6588814 63.7000039,19.9946678 63.7000039,20.4088814 C63.7000039,20.7885772 63.41785,21.1023724 63.0517744,21.1520348 L62.9500039,21.1588814 L61.9500039,21.1588814 C61.5357903,21.1588814 61.2000039,20.823095 61.2000039,20.4088814 C61.2000039,20.0291856 61.4821577,19.7153904 61.8482333,19.665728 L61.9500039,19.6588814 L62.9500039,19.6588814 Z M67.9500039,19.6588814 C68.3642174,19.6588814 68.7000039,19.9946678 68.7000039,20.4088814 C68.7000039,20.7885772 68.41785,21.1023724 68.0517744,21.1520348 L67.9500039,21.1588814 L66.9500039,21.1588814 C66.5357903,21.1588814 66.2000039,20.823095 66.2000039,20.4088814 C66.2000039,20.0291856 66.4821577,19.7153904 66.8482333,19.665728 L66.9500039,19.6588814 L67.9500039,19.6588814 Z M7.5168019,19.6588814 C7.93101546,19.6588814 8.2668019,19.9946678 8.2668019,20.4088814 C8.2668019,20.7885772 7.98464802,21.1023724 7.61857246,21.1520348 L7.5168019,21.1588814 L6.5168019,21.1588814 C6.10258834,21.1588814 5.7668019,20.823095 5.7668019,20.4088814 C5.7668019,20.0291856 6.04895578,19.7153904 6.41503134,19.665728 L6.5168019,19.6588814 L7.5168019,19.6588814 Z M12.0370039,19.6588814 C12.4512174,19.6588814 12.7870039,19.9946678 12.7870039,20.4088814 C12.7870039,20.7885772 12.50485,21.1023724 12.1387744,21.1520348 L12.0370039,21.1588814 L11.5168019,21.1588814 C11.1025883,21.1588814 10.7668019,20.823095 10.7668019,20.4088814 C10.7668019,20.0291856 11.0489558,19.7153904 11.4150313,19.665728 L11.5168019,19.6588814 L12.0370039,19.6588814 Z M25.1102039,19.6588814 C25.5244174,19.6588814 25.8602039,19.9946678 25.8602039,20.4088814 C25.8602039,20.7885772 25.57805,21.1023724 25.2119744,21.1520348 L25.1102039,21.1588814 L24.6102039,21.1588814 C24.1959903,21.1588814 23.8602039,20.823095 23.8602039,20.4088814 C23.8602039,20.0291856 24.1423577,19.7153904 24.5084333,19.665728 L24.6102039,19.6588814 L25.1102039,19.6588814 Z M30.0447039,19.6588814 C30.4589174,19.6588814 30.7947039,19.9946678 30.7947039,20.4088814 C30.7947039,20.7885772 30.51255,21.1023724 30.1464744,21.1520348 L30.0447039,21.1588814 L29.0447039,21.1588814 C28.6304903,21.1588814 28.2947039,20.823095 28.2947039,20.4088814 C28.2947039,20.0291856 28.5768577,19.7153904 28.9429333,19.665728 L29.0447039,19.6588814 L30.0447039,19.6588814 Z M34.9787039,19.6588814 C35.3929174,19.6588814 35.7287039,19.9946678 35.7287039,20.4088814 C35.7287039,20.7885772 35.44655,21.1023724 35.0804744,21.1520348 L34.9787039,21.1588814 L33.9787039,21.1588814 C33.5644903,21.1588814 33.2287039,20.823095 33.2287039,20.4088814 C33.2287039,20.0291856 33.5108578,19.7153904 33.8769333,19.665728 L33.9787039,19.6588814 L34.9787039,19.6588814 Z M39.9127039,19.6588814 C40.3269175,19.6588814 40.6627039,19.9946678 40.6627039,20.4088814 C40.6627039,20.7885772 40.38055,21.1023724 40.0144745,21.1520348 L39.9127039,21.1588814 L38.9127039,21.1588814 C38.4984903,21.1588814 38.1627039,20.823095 38.1627039,20.4088814 C38.1627039,20.0291856 38.4448578,19.7153904 38.8109333,19.665728 L38.9127039,19.6588814 L39.9127039,19.6588814 Z M44.8467039,19.6588814 C45.2609175,19.6588814 45.5967039,19.9946678 45.5967039,20.4088814 C45.5967039,20.7885772 45.31455,21.1023724 44.9484745,21.1520348 L44.8467039,21.1588814 L43.8467039,21.1588814 C43.4324903,21.1588814 43.0967039,20.823095 43.0967039,20.4088814 C43.0967039,20.0291856 43.3788578,19.7153904 43.7449334,19.665728 L43.8467039,19.6588814 L44.8467039,19.6588814 Z M49.2166039,19.6588814 C49.6308174,19.6588814 49.9666039,19.9946678 49.9666039,20.4088814 C49.9666039,20.7885772 49.68445,21.1023724 49.3183744,21.1520348 L49.2166039,21.1588814 L48.7166039,21.1588814 C48.3023903,21.1588814 47.9666039,20.823095 47.9666039,20.4088814 C47.9666039,20.0291856 48.2487577,19.7153904 48.6148333,19.665728 L48.7166039,19.6588814 L49.2166039,19.6588814 Z" id="basket_dashed" fill="#D1D3D4" fill-rule="nonzero"></path>
    </g>
</svg>