<?xml version="1.0" encoding="utf-8"?>
<!-- Generator: Adobe Illustrator 22.0.1, SVG Export Plug-In . SVG Version: 6.00 Build 0)  -->
<svg version="1.1" id="Layer_1" xmlns="http://www.w3.org/2000/svg" xmlns:xlink="http://www.w3.org/1999/xlink" x="0px" y="0px"
	 viewBox="0 0 24 24" style="enable-background:new 0 0 24 24;" fill="#939598" xml:space="preserve">
<style type="text/css">
	.st0{fill:#221A1C;}
	.st1{fill:#231F20;}
</style>
<path d="M21.90224,8.19405c-0.09473-0.12109-0.23926-0.19189-0.39355-0.19189h-4.78162L14.9706,3.31124
	c-0.09668-0.2583-0.38184-0.38818-0.64355-0.29297c-0.25781,0.09668-0.38965,0.38477-0.29199,0.64355l1.62518,4.34033H8.34762
	l1.6181-4.32764c0.09668-0.25879-0.03516-0.54688-0.29395-0.64355C9.41494,2.93575,9.1249,3.06466,9.02822,3.32393L7.27901,8.00216
	H2.51845c-0.14746,0-0.28711,0.06494-0.38184,0.17773c-0.0957,0.11279-0.13574,0.26123-0.11133,0.40674l2.0498,11.96533
	c0.04102,0.24023,0.25,0.41553,0.49316,0.41553h13.97168c0.22949,0,0.42969-0.15674,0.48535-0.37939l2.96875-11.96533
	C22.03115,8.47335,21.99697,8.31515,21.90224,8.19405z M18.14931,19.96749H4.99013L3.11123,9.00216h3.79388l-0.8681,2.32178
	c-0.09668,0.25879,0.03516,0.54688,0.29395,0.64355c0.05762,0.02148,0.11621,0.03174,0.1748,0.03174
	c0.20215,0,0.39355-0.12402,0.46875-0.32471l0.99921-2.67236h8.06097l1.00427,2.68213
	c0.0752,0.20068,0.26562,0.32471,0.46777,0.32471c0.05859,0,0.11719-0.01025,0.17578-0.03174
	c0.25781-0.09668,0.38965-0.38477,0.29199-0.64355l-0.87299-2.33154h3.76752L18.14931,19.96749z"/>
</svg>
