<?xml version="1.0" encoding="UTF-8"?>
<svg width="74px" height="74px" viewBox="0 0 74 74" version="1.1" xmlns="http://www.w3.org/2000/svg" xmlns:xlink="http://www.w3.org/1999/xlink">
    <!-- Generator: Sketch 59.1 (86144) - https://sketch.com -->
    <title>basket_full</title>
    <desc>Created with Sketch.</desc>
    <g id="1024---App-PICKING---Flujo-normal" stroke="none" stroke-width="1" fill="none" fill-rule="evenodd">
    <!-- <text x="30" y="40" fill="#f00" style="font-family: Consolas">3</text> -->
        <path d="M49.9551583,7.54435079 L50.0070234,7.6321809 L56.0588413,19.6581686 L69.163876,19.6588314 C71.5745251,19.6588314 73.359081,21.9028591 72.8163471,24.2538666 L63.5935607,63.8749465 C63.1998742,65.5759217 61.6850365,66.7808314 59.939876,66.7808314 L13.390876,66.7808314 C11.619327,66.7808314 10.0895845,65.5416627 9.72276221,63.8110849 L1.16929484,24.1869041 C0.673101784,21.8546718 2.45247561,19.6588314 4.83687599,19.6588314 L18.0098413,19.6581686 L24.0621286,7.6321809 C24.2483316,7.26217916 24.6992247,7.11318089 25.0692265,7.29938396 C25.4083947,7.47007011 25.5618587,7.8631694 25.4416569,8.21249618 L25.4020234,8.30648187 L19.6888413,19.6581686 L54.3798413,19.6581686 L48.6671286,8.30648187 C48.4964424,7.9673136 48.6074185,7.56017413 48.9120954,7.35124911 L48.9999255,7.29938396 C49.3390938,7.12869781 49.7462332,7.2396739 49.9551583,7.54435079 Z M17.2548413,21.1581686 L4.83687599,21.1588314 C3.40623062,21.1588314 2.33886765,22.4760131 2.63598977,23.8725778 L11.1895743,63.4973106 C11.4100391,64.5373942 12.3278055,65.2808314 13.390876,65.2808314 L59.939876,65.2808314 C60.9867544,65.2808314 61.8958865,64.5577031 62.1324049,63.5357962 L71.3550957,23.91513 C71.6805513,22.5053222 70.6097588,21.1588314 69.163876,21.1588314 L56.8138413,21.1581686 L59.5410286,26.5772611 C59.7466316,26.5327665 59.9600703,26.5093314 60.178976,26.5093314 C61.836976,26.5093314 63.181976,27.8553314 63.181976,29.5133314 C63.181976,31.1723314 61.836976,32.5173314 60.178976,32.5173314 C58.519976,32.5173314 57.174976,31.1723314 57.174976,29.5133314 C57.174976,28.6119584 57.5724991,27.8027989 58.2018848,27.2519954 L55.1348413,21.1581686 L18.9338413,21.1581686 L15.8680514,27.2528571 C16.4968673,27.8036427 16.893976,28.6124283 16.893976,29.5133314 C16.893976,31.1723314 15.548976,32.5173314 13.889976,32.5173314 C12.230976,32.5173314 10.885976,31.1723314 10.885976,29.5133314 C10.885976,27.8553314 12.230976,26.5093314 13.889976,26.5093314 C14.1092365,26.5093314 14.3230122,26.5328425 14.528923,26.5774776 L17.2548413,21.1581686 Z M13.890076,28.1393314 C13.131076,28.1393314 12.516076,28.7543314 12.516076,29.5133314 C12.516076,30.2723314 13.131076,30.8873314 13.890076,30.8873314 C14.649076,30.8873314 15.264076,30.2723314 15.264076,29.5133314 C15.264076,28.7543314 14.649076,28.1393314 13.890076,28.1393314 Z M60.179176,28.1393314 C59.419176,28.1393314 58.805176,28.7543314 58.805176,29.5133314 C58.805176,30.2723314 59.419176,30.8873314 60.179176,30.8873314 C60.938176,30.8873314 61.552176,30.2723314 61.552176,29.5133314 C61.552176,28.7543314 60.938176,28.1393314 60.179176,28.1393314 Z" id="basket_full" fill="#D5D7DB" fill-rule="nonzero"></path>
    </g>
</svg>