<?xml version="1.0" encoding="utf-8"?>
<!-- Generator: Adobe Illustrator 22.0.1, SVG Export Plug-In . SVG Version: 6.00 Build 0)  -->
<svg version="1.1" id="Layer_1" xmlns="http://www.w3.org/2000/svg" xmlns:xlink="http://www.w3.org/1999/xlink" x="0px" y="0px"
	 viewBox="0 0 24 24" style="enable-background:new 0 0 24 24;" xml:space="preserve">
<style type="text/css">
	.st0{fill:#221A1C;}
	.st1{fill:#231F20;}
</style>
<path d="M19.93932,7.76729l0.05566,9.05078c0,0.42676-0.24854,0.81641-0.63281,0.99561l-4.55566,2.99707
	c-0.08447,0.05566-0.17969,0.08203-0.27393,0.08203c-0.1626,0-0.32227-0.0791-0.41846-0.22559
	c-0.15137-0.23096-0.0874-0.54102,0.14355-0.69238l4.61865-3.03223c0.09668-0.05078,0.11865-0.08496,0.11865-0.12158
	l-0.0545-8.85199l-4.25995,1.9848c-0.06787,0.03174-0.14014,0.04688-0.21045,0.04688c-0.18848,0-0.36914-0.10693-0.45361-0.28906
	c-0.1167-0.25-0.0083-0.54736,0.24219-0.66406l4.08191-1.90186l-4.06091-2.2041c-0.24268-0.13184-0.33252-0.43555-0.20068-0.67822
	c0.13232-0.24219,0.43457-0.33252,0.67822-0.20068l4.62256,2.51074c0.35449,0.15625,0.60986,0.54443,0.61523,0.97119
	C19.99596,7.62325,19.97545,7.69893,19.93932,7.76729z M11.99889,2.48263v19.01953c0,0.27637-0.22363,0.5-0.5,0.5
	s-0.5-0.22363-0.5-0.5v-0.79169L4.6195,17.72286c-0.38379-0.1792-0.63184-0.56885-0.63184-0.99219v-9.2417
	c0-0.00098,0-0.00195,0-0.00293c0-0.00391,0-0.00781,0-0.01172C3.9901,7.35079,4.01549,7.22872,4.06481,7.10128
	c0.00684-0.01807,0.03955-0.09033,0.04834-0.10742c0.04297-0.08447,0.09717-0.16357,0.16211-0.23389
	C4.286,6.74825,4.33336,6.696,4.34508,6.68526c0.08789-0.08203,0.18555-0.14795,0.2915-0.19531l6.3623-2.87292v-1.1344
	c0-0.27637,0.22363-0.5,0.5-0.5S11.99889,2.20626,11.99889,2.48263z M10.99889,4.71377l-5.35168,2.4162l5.35168,2.43115V4.71377z
	 M10.99889,19.60671v-8.94733L4.98766,7.92855v8.80212c0,0.03662,0.02197,0.0708,0.05566,0.08643L10.99889,19.60671z"/>
</svg>
