<?xml version="1.0" encoding="utf-8"?>
<!-- Generator: Adobe Illustrator 22.0.1, SVG Export Plug-In . SVG Version: 6.00 Build 0)  -->
<svg version="1.1" id="Layer_1" xmlns="http://www.w3.org/2000/svg" xmlns:xlink="http://www.w3.org/1999/xlink" x="0px" y="0px"
	 viewBox="0 0 24 24" style="enable-background:new 0 0 24 24; fill:#757575;" xml:space="preserve">
<style type="text/css">
	.st0{fill:#1DB779;}
	.st1{fill:#231F20;}
</style>
<path d="M21.0006,6.72433c-0.00244-0.19305-0.06128-0.3739-0.14905-0.53772c-0.00323-0.0083-0.00201-0.01703-0.00574-0.02527
	c-0.00446-0.00977-0.01306-0.01575-0.01801-0.02509c-0.02441-0.04083-0.05328-0.07715-0.08234-0.11469
	c-0.00818-0.00848-0.0144-0.01843-0.02307-0.02625c-0.11304-0.13739-0.24866-0.25641-0.41516-0.33008l-7.82959-3.6084
	c-0.30469-0.1377-0.6543-0.13721-0.95996,0.00146L3.70372,5.58663C3.58996,5.63741,3.484,5.70919,3.39318,5.79513
	C3.37951,5.80733,3.3258,5.86642,3.31309,5.88009C3.24328,5.95675,3.18566,6.04171,3.14122,6.13058
	c-0.00879,0.0166-0.04492,0.0957-0.05176,0.11328C3.03673,6.3796,3.00988,6.50997,3.00646,6.64278c0,0.00488,0,0.00977,0,0.01465
	c0,0.00098,0,0.00195,0,0.00293v10.50439c0,0.45557,0.26709,0.87402,0.6792,1.06592l7.81934,3.6626
	c0.02686,0.01221,0.06006,0.02344,0.09326,0.03174c0.13477,0.05029,0.26562,0.07568,0.40723,0.07715
	c0.12695-0.00146,0.25439-0.02588,0.39258-0.07617c0.03369-0.00879,0.06689-0.02002,0.09424-0.03223l7.82861-3.56006
	c0.4126-0.19238,0.67969-0.61084,0.67969-1.06592V6.76339c0-0.00488,0-0.01025-0.00049-0.01562
	C21.0006,6.7419,21.0006,6.73604,21.0006,6.73067C21.0006,6.72872,21.0006,6.72628,21.0006,6.72433z M11.92833,2.96993
	c0.0459-0.02051,0.09668-0.01953,0.13525-0.00293l7.24432,3.3385L16.575,7.53646c-0.05115-0.03705-0.0863-0.08258-0.15155-0.11145
	L9.18078,4.21035L11.92833,2.96993z M12.00329,9.59554c-0.01196-0.00665-0.02283-0.01758-0.03491-0.02307l-7.30914-3.3208
	l3.32605-1.50159c0.02924,0.02173,0.05438,0.04773,0.08905,0.06311l7.35339,3.23999L12.00329,9.59554z M4.00646,17.16475V7.05337
	l6.99512,3.17828c-0.00195,0.02393-0.00293,0.0459-0.00244,0.06445v0.28418c0,0.01611,0.00146,0.03418,0.00342,0.05225v9.92133
	L4.109,17.32491C4.0465,17.2961,4.00646,17.23311,4.00646,17.16475z M19.90246,17.4255l-7.77734,3.5376
	c-0.02197,0.00586-0.04297,0.0127-0.06104,0.02002l0.00293,0.00635l-0.01367,0.00635l-0.05078,0.00049V10.67165
	c0.03058-0.0072,0.06152-0.00635,0.09131-0.01959l3.90088-1.75696v4.60706c0,0.27637,0.22363,0.5,0.5,0.5s0.5-0.22363,0.5-0.5
	V8.52608c0-0.00537,0-0.01074-0.00049-0.01611c0.00049-0.00781,0.00049-0.01562,0.00049-0.02295
	c-0.00012-0.01025-0.00195-0.02966-0.00214-0.04138l3.008-1.3548v10.17694C20.0006,17.33565,19.96056,17.39864,19.90246,17.4255z"/>
</svg>
