
<svg version="1.1" id="Layer_1" xmlns="http://www.w3.org/2000/svg" xmlns:xlink="http://www.w3.org/1999/xlink" x="0px" y="0px"
	 viewBox="0 0 24 24" style="enable-background:new 0 0 24 24; fill: grey;" xml:space="preserve">
<style type="text/css">
	.st0{fill:#221A1C;}
	.st1{fill:#231F20;}
	.st2{fill:none;}
</style>
<g>
	<path d="M11.99683,1.9963c-5.52311,0-10.00052,4.47717-10.00052,10.00003c0,5.5228,4.47741,9.99997,10.00052,9.99997
		c5.52317,0,10.00058-4.47717,10.00058-9.99997C21.99741,6.47347,17.52,1.9963,11.99683,1.9963z M11.99683,19.99704
		c-4.41182,0-8.00115-3.58913-8.00115-8.00071c0-4.41164,3.58933-8.00077,8.00115-8.00077
		c4.41188,0,8.00121,3.58913,8.00121,8.00077C19.99804,16.40791,16.40872,19.99704,11.99683,19.99704z"/>
	<polygon points="10.87939,13.90059 8.01993,11.33562 6.68442,12.82335 11.07269,16.76087 17.40273,9.30903 15.87977,8.01458 	"/>
</g>
</svg>
