<?xml version="1.0" encoding="utf-8"?>
<!-- Generator: Adobe Illustrator 22.0.1, SVG Export Plug-In . SVG Version: 6.00 Build 0)  -->
<svg version="1.1" id="Layer_1" xmlns="http://www.w3.org/2000/svg" xmlns:xlink="http://www.w3.org/1999/xlink" x="0px" y="0px"
	 viewBox="0 0 24 24" style="enable-background:new 0 0 24 24;" xml:space="preserve">
<style type="text/css">
	.st0{fill:#221A1C;}
	.st1{fill:#231F20;}
</style>
<path d="M20.50327,2.99124H3.50718c-0.82715,0-1.5,0.64453-1.5,1.43652v11.11719c0,0.79248,0.67285,1.43701,1.5,1.43701h2.49023
	v3.51221c0,0.19482,0.11328,0.37207,0.29004,0.45361c0.06738,0.03125,0.13867,0.04639,0.20996,0.04639
	c0.11621,0,0.23145-0.04053,0.32422-0.11914l4.57812-3.89307h9.10352c0.82715,0,1.5-0.64453,1.5-1.43701V4.42776
	C22.00327,3.63577,21.33042,2.99124,20.50327,2.99124z M21.00327,15.54495c0,0.24121-0.22461,0.43701-0.5,0.43701h-9.30176
	c-0.1582,0-0.2998,0.07373-0.39062,0.18848l-3.81348,3.24219v-2.93066c0-0.27637-0.22363-0.5-0.5-0.5H3.50718
	c-0.27539,0-0.5-0.1958-0.5-0.43701V4.42776c0-0.24072,0.22461-0.43652,0.5-0.43652h16.99609c0.27539,0,0.5,0.1958,0.5,0.43652
	V15.54495z M4.99741,6.99026h13.97949v1H4.99741V6.99026z M4.99644,9.99612h13.98047v1H4.99644V9.99612z M4.99644,12.99612h7.62402
	v1H4.99644V12.99612z"/>
</svg>
