<?xml version="1.0" encoding="utf-8"?>
<!-- Generator: Adobe Illustrator 22.0.1, SVG Export Plug-In . SVG Version: 6.00 Build 0)  -->
<svg version="1.1" id="Layer_1" xmlns="http://www.w3.org/2000/svg" xmlns:xlink="http://www.w3.org/1999/xlink" x="0px" y="0px"
	 viewBox="0 0 24 24" style="enable-background:new 0 0 24 24;" xml:space="preserve">
<style type="text/css">
	.st0{fill:#221A1C;}
	.st1{fill:#231F20;}
</style>
<path d="M19.49604,3.99044H4.50385c-1.38086,0-2.50391,1.12305-2.50391,2.50391v11.01562c0,1.38086,1.12305,2.50391,2.50391,2.50391
	h14.99219c1.38086,0,2.50391-1.12305,2.50391-2.50391V6.49434C21.99995,5.11349,20.8769,3.99044,19.49604,3.99044z M4.50385,4.99044
	h14.99219c0.8291,0,1.50391,0.6748,1.50391,1.50391v7.5h-18v-7.5C2.99995,5.66524,3.67475,4.99044,4.50385,4.99044z
	 M19.49604,19.01388H4.50385c-0.8291,0-1.50391-0.6748-1.50391-1.50391v-2.51562h18v2.51562
	C20.99995,18.33907,20.32514,19.01388,19.49604,19.01388z M8.00922,8.00216H5.00581v-1h3.00342V8.00216z"/>
</svg>
