<?xml version="1.0" encoding="utf-8"?>
<!-- Generator: Adobe Illustrator 22.0.1, SVG Export Plug-In . SVG Version: 6.00 Build 0)  -->
<svg version="1.1" id="Layer_1" xmlns="http://www.w3.org/2000/svg" xmlns:xlink="http://www.w3.org/1999/xlink" x="0px" y="0px"
	 viewBox="0 0 24 24" style="enable-background:new 0 0 24 24;" xml:space="preserve">
<style type="text/css">
	.st0{fill:#221A1C;}
	.st1{fill:#231F20;}
</style>
<path class="st1" d="M11.99995,2.0002c-5.51416,0-10,4.48584-10,10s4.48584,10,10,10s10-4.48584,10-10
	S17.51411,2.0002,11.99995,2.0002z M11.99995,21.0002c-4.9624,0-9-4.0376-9-9s4.0376-9,9-9s9,4.0376,9,9
	S16.96235,21.0002,11.99995,21.0002z M15.90034,8.80392l-3.20691,3.20667l3.18591,3.18591l-0.70703,0.70703l-3.18591-3.18591
	l-3.17932,3.17908l-0.70703-0.70703l3.17932-3.17908L8.12299,8.85421l0.70703-0.70703l3.15637,3.15637l3.20691-3.20667
	L15.90034,8.80392z"/>
</svg>
