<?xml version="1.0" encoding="utf-8"?>
<!-- Generator: Adobe Illustrator 22.0.1, SVG Export Plug-In . SVG Version: 6.00 Build 0)  -->
<svg version="1.1" id="Layer_1" xmlns="http://www.w3.org/2000/svg" xmlns:xlink="http://www.w3.org/1999/xlink" x="0px" y="0px"
	 viewBox="0 0 24 24" style="enable-background:new 0 0 24 24;" xml:space="preserve">
<style type="text/css">
	.st0{fill:#221A1C;}
	.st1{fill:#231F20;}
</style>
<path d="M6.98549,3.49636V3.4963c0-0.27606,0.22388-0.49994,0.5-0.49994h13.99249c0.27612,0,0.49994,0.22388,0.49994,0.49994
	v0.00006c0,0.27606-0.22382,0.49994-0.49994,0.49994H7.48549C7.20936,3.9963,6.98549,3.77242,6.98549,3.49636z M21.47834,6.99483
	H11.46461c-0.27612,0-0.49994,0.22382-0.49994,0.49994s0.22382,0.5,0.49994,0.5h10.01373c0.27612,0,0.49994-0.22388,0.49994-0.5
	S21.75447,6.99483,21.47834,6.99483z M21.48262,10.99135H15.4817c-0.27606,0-0.49994,0.22382-0.49994,0.49994
	s0.22388,0.49994,0.49994,0.49994h6.00092c0.27612,0,0.49994-0.22382,0.49994-0.49994S21.75874,10.99135,21.48262,10.99135z
	 M21.47834,14.99178h-1.97577c-0.27612,0-0.49994,0.22382-0.49994,0.49994s0.22382,0.49994,0.49994,0.49994h1.97577
	c0.27612,0,0.49994-0.22382,0.49994-0.49994S21.75447,14.99178,21.47834,14.99178z M21.85688,21.13985L2.83784,2.1213
	c-0.19531-0.19531-0.51172-0.19531-0.70703,0s-0.19531,0.51172,0,0.70703l4.16663,4.1665H2.49849
	c-0.27612,0-0.49994,0.22382-0.49994,0.49994s0.22382,0.5,0.49994,0.5h4.79889l2.99664,2.99658H2.49849
	c-0.27612,0-0.49994,0.22382-0.49994,0.49994s0.22382,0.49994,0.49994,0.49994h8.79547l3.00256,3.0025H2.49684
	c-0.27606,0-0.49994,0.22382-0.49994,0.49994s0.22388,0.49994,0.49994,0.49994h12.79962l2.99866,2.9986H2.4972
	c-0.27612,0-0.49994,0.22382-0.49994,0.49994s0.22382,0.49994,0.49994,0.49994h16.79779l1.85486,1.8548
	c0.09766,0.09766,0.22559,0.14648,0.35352,0.14648s0.25586-0.04883,0.35352-0.14648
	C22.0522,21.65157,22.0522,21.33517,21.85688,21.13985z"/>
</svg>
