<?xml version="1.0" encoding="utf-8"?>
<!-- Generator: Adobe Illustrator 22.0.1, SVG Export Plug-In . SVG Version: 6.00 Build 0)  -->
<svg version="1.1" id="Layer_1" xmlns="http://www.w3.org/2000/svg" xmlns:xlink="http://www.w3.org/1999/xlink" x="0px" y="0px"
	 viewBox="0 0 24 24" style="enable-background:new 0 0 24 24; fill:#2979FF;" xml:space="preserve">
<style type="text/css">
	.st0{fill:#2979FF;}
	.st1{fill:#2979FF;}
</style>
<path class="st1" d="M17.91694,6.89456c0.19434-0.19629,0.19238-0.5127-0.00391-0.70703
	c-0.00055-0.00049-0.00122-0.00067-0.00177-0.00116l0.00031-0.00031l-3.1167-3.06055l-0.01111,0.01129
	c-0.00159-0.00165-0.00195-0.00385-0.00354-0.00543C14.5854,2.9346,14.26899,2.93265,14.07319,3.1265L3.02143,14.03421v3.94629
	h3.92676L17.91694,6.89456z M8.17359,15.32053l-2.5163-2.48285l6.43115-6.34735l2.43988,2.40741L8.17359,15.32053z
	 M14.43537,4.17392l2.41772,2.37421l-1.62146,1.63885l-2.43146-2.39911L14.43537,4.17392z M4.02143,16.9805v-2.52832
	l0.92413-0.91205l2.52478,2.49115L6.5312,16.9805H4.02143z M20.99311,20.00198v1H3.00678v-1H20.99311z" fill="#2979FF" fill-rule="nonzero"/>
</svg>
