<?xml version="1.0" encoding="utf-8"?>
<!-- Generator: Adobe Illustrator 22.0.1, SVG Export Plug-In . SVG Version: 6.00 Build 0)  -->
<svg version="1.1" id="Layer_1" xmlns="http://www.w3.org/2000/svg" xmlns:xlink="http://www.w3.org/1999/xlink" x="0px" y="0px"
	 viewBox="0 0 24 24" style="enable-background:new 0 0 24 24;" xml:space="preserve">
<style type="text/css">
	.st0{fill:#221A1C;}
	.st1{fill:#231F20;}
</style>
<path d="M12.00011,2.0002c-5.51416,0-10,4.48584-10,10s4.48584,10,10,10s10-4.48584,10-10S17.51427,2.0002,12.00011,2.0002z
	 M12.00011,21.0002c-4.9624,0-9-4.0376-9-9s4.0376-9,9-9s9,4.0376,9,9S16.96251,21.0002,12.00011,21.0002z M12.50072,13.02724
	h-1.00146v-6.0033h1.00146V13.02724z M12.99321,15.98238c0,0.55798-0.45233,1.01031-1.01038,1.01031
	c-0.55798,0-1.01031-0.45233-1.01031-1.01031s0.45233-1.01031,1.01031-1.01031
	C12.54088,14.97207,12.99321,15.4244,12.99321,15.98238z"/>
</svg>
