<?xml version="1.0" encoding="utf-8"?>
<!-- Generator: Adobe Illustrator 22.0.1, SVG Export Plug-In . SVG Version: 6.00 Build 0)  -->
<svg version="1.1" id="Layer_1" xmlns="http://www.w3.org/2000/svg" xmlns:xlink="http://www.w3.org/1999/xlink" x="0px" y="0px"
	 viewBox="0 0 24 24" style="enable-background:new 0 0 24 24; fill: #08C4C4;" xml:space="preserve">
<style type="text/css">
	.st0{fill:#221A1C;}
	.st1{fill:#231F20;}
</style>
<path d="M18.57807,2.73311c0-0.00049,0-0.00049-0.00049-0.00049c-0.94092-0.49854-1.99707-0.76172-3.0542-0.76172
	c-0.271-0.00879-0.51221,0.22021-0.51221,0.5v6.03418c0,0.27637,0.22363,0.5,0.5,0.5h6.03564
	c0.13281,0,0.25977-0.05273,0.35352-0.14648s0.14648-0.22119,0.14648-0.354C22.04536,6.07931,20.71626,3.86788,18.57807,2.73311z
	 M16.01118,8.00509V2.9919c0.73145,0.06445,1.43555,0.27344,2.09814,0.62402c1.66211,0.88281,2.74707,2.53467,2.91504,4.38916
	H16.01118z M10.97407,6.91427V6.49093c0-0.27637,0.22363-0.5,0.5-0.5s0.5,0.22363,0.5,0.5v0.42334c0,0.27637-0.22363,0.5-0.5,0.5
	S10.97407,7.19063,10.97407,6.91427z M10.97407,9.20186c0-0.27637,0.22363-0.5,0.5-0.5s0.5,0.22363,0.5,0.5v0.604
	c0,0.27637-0.22363,0.5-0.5,0.5s-0.5-0.22363-0.5-0.5V9.20186z M11.96918,12.02218c0.24219,0.03516,0.42822,0.24316,0.42822,0.49512
	c0,0.27637-0.22363,0.5-0.5,0.5h-0.42334c-0.27637,0-0.5-0.22363-0.5-0.5v-0.42334c0-0.27637,0.22363-0.5,0.5-0.5
	C11.72602,11.59395,11.93403,11.77999,11.96918,12.02218z M13.68745,12.51729c0-0.27637,0.22363-0.5,0.5-0.5h0.60449
	c0.27637,0,0.5,0.22363,0.5,0.5s-0.22363,0.5-0.5,0.5h-0.60449C13.91108,13.01729,13.68745,12.79366,13.68745,12.51729z
	 M17.08198,13.01729c-0.27637,0-0.5-0.22363-0.5-0.5s0.22363-0.5,0.5-0.5h0.42334c0.27637,0,0.5,0.22363,0.5,0.5
	s-0.22363,0.5-0.5,0.5H17.08198z M20.99067,12.488c0,5.23828-4.26172,9.5-9.5,9.5s-9.5-4.26172-9.5-9.5s4.26172-9.5,9.5-9.5
	c0.27637,0,0.5,0.22363,0.5,0.5s-0.22363,0.5-0.5,0.5c-4.68701,0-8.5,3.81299-8.5,8.5s3.81299,8.5,8.5,8.5s8.5-3.81299,8.5-8.5
	c0-0.27637,0.22363-0.5,0.5-0.5S20.99067,12.21163,20.99067,12.488z"/>
</svg>
