<?xml version="1.0" encoding="UTF-8"?>
<svg width="48px" height="48px" viewBox="0 0 48 48" version="1.1" xmlns="http://www.w3.org/2000/svg" xmlns:xlink="http://www.w3.org/1999/xlink">
    <!-- Generator: Sketch 59.1 (86144) - https://sketch.com -->
    <title>icn_bubble</title>
    <desc>Created with Sketch.</desc>
    <g id="1024---App-PICKING---Flujo-normal" stroke="none" stroke-width="1" fill="none" fill-rule="evenodd">
        <path d="M24.0399821,9 C31.7925933,9 38.079,15.2860952 38.079,23.0390179 C38.079,25.760012 37.3011963,28.366312 35.8628746,30.6072674 L37.5537236,37.5204034 C37.6690262,37.9918245 37.2060433,38.3979639 36.7536562,38.2222411 L30.1653727,35.6631251 L29.7827634,35.8424235 C27.9863839,36.6519112 26.0401144,37.079 24.0399821,37.079 C16.2867181,37.079 10,30.7932163 10,23.0390179 C10,15.2862657 16.2872003,9 24.0399821,9 Z M24.0399821,10.2 C16.949902,10.2 11.2,15.9490474 11.2,23.0390179 C11.2,30.1304347 16.9494199,35.879 24.0399821,35.879 C26.0826705,35.879 28.0633119,35.3918497 29.8623929,34.4733515 C30.0147325,34.3955765 30.1930244,34.3865163 30.3524633,34.4484479 L36.114413,36.6865875 L34.635293,30.6391181 C34.5953114,30.4756508 34.625817,30.3029069 34.7193693,30.1630211 C36.1200603,28.0686094 36.879,25.6111579 36.879,23.0390179 C36.879,15.9488502 31.1298649,10.2 24.0399821,10.2 Z M17.1669978,21.3216 C18.2417761,21.3216 19.1121,22.1927194 19.1121,23.2667022 C19.1121,24.3406851 18.2417761,25.2126 17.1669978,25.2126 C16.094606,25.2126 15.2211,24.3406851 15.2211,23.2667022 C15.2211,22.1927194 16.094606,21.3216 17.1669978,21.3216 Z M30.9130978,21.3216 C31.9862851,21.3216 32.8582,22.1927194 32.8582,23.2667022 C32.8582,24.3406851 31.9862851,25.2126 30.9130978,25.2126 C29.8391149,25.2126 28.9672,24.3406851 28.9672,23.2667022 C28.9672,22.1927194 29.8391149,21.3216 30.9130978,21.3216 Z M24.0400977,21.3216 C25.11465,21.3216 25.9832,22.1925362 25.9832,23.2662931 C25.9832,24.34005 25.11465,25.2117815 24.0400977,25.2117815 C22.9695223,25.2117815 22.0962,24.34005 22.0962,23.2662931 C22.0962,22.1925362 22.9695223,21.3216 24.0400977,21.3216 Z" id="icn_bubble" fill="#000000" fill-rule="nonzero"></path>
    </g>
</svg>