<?xml version="1.0" encoding="UTF-8"?>
<svg width="48px" height="49px" viewBox="0 0 48 49" version="1.1" xmlns="http://www.w3.org/2000/svg" xmlns:xlink="http://www.w3.org/1999/xlink">
    <!-- Generator: Sketch 59.1 (86144) - https://sketch.com -->
    <title>icn_pre-pick</title>
    <desc>Created with Sketch.</desc>
    <g id="1024---App-PICKING---Flujo-normal" stroke="none" stroke-width="1" fill="none" fill-rule="evenodd">
        <path d="M24,1.4999 C36.9788004,1.4999 47.5,12.0214156 47.5,24.9999 C47.5,37.9797004 36.9794844,48.4999 24,48.4999 C11.0205156,48.4999 0.5,37.9797004 0.5,24.9999 C0.5,12.0214156 11.0211996,1.4999 24,1.4999 Z M24,2.4999 C11.5734911,2.4999 1.5,12.5736936 1.5,24.9999 C1.5,37.4274089 11.5727936,47.4999 24,47.4999 C36.4272064,47.4999 46.5,37.4274089 46.5,24.9999 C46.5,12.5736936 36.4265089,2.4999 24,2.4999 Z M22.043,11.472 C22.4019851,11.472 22.693,11.7630149 22.693,12.122 L22.693,12.122 L22.6931414,15.516848 C22.6932099,15.5255563 22.6931023,15.5342517 22.6928205,15.5429292 L22.6927946,22.4403498 C22.6931097,22.4496887 22.693223,22.4590487 22.6931321,22.4684235 L22.6930304,34.6340172 C22.6932001,34.6426557 22.693197,34.6513096 22.6930194,34.6599739 L22.693,38.193 C22.693,38.5519851 22.4019851,38.843 22.043,38.843 C21.6840149,38.843 21.393,38.5519851 21.393,38.193 L21.393,38.193 L21.393,35.0599 L14.4632777,31.8308558 C14.0214853,31.6257379 13.7247526,31.2016818 13.6783651,30.7222917 L13.672,30.5903 L13.672,19.4393 L13.6856776,19.2604661 C13.7009184,19.157682 13.7281157,19.0596108 13.7641343,18.966167 C13.784422,18.9103759 13.8029235,18.8715679 13.8215897,18.8377125 L13.8215897,18.8377125 L13.8802504,18.7301869 C13.921905,18.6611748 13.9683357,18.5980163 14.0176283,18.543773 L14.0176283,18.543773 L14.037512,18.5190265 L14.105966,18.4474308 C14.2155385,18.3436252 14.3341912,18.2591248 14.4618581,18.2007395 L14.4618581,18.2007395 L21.393,15.0999 L21.393,12.122 C21.393,11.7956499 21.6335082,11.5254735 21.9469478,11.4790477 Z M25.0310633,15.2144713 C25.1731268,14.8847923 25.5555497,14.7326998 25.8852287,14.8747633 L25.8852287,14.8747633 L33.5117065,18.1611537 C33.7536314,18.2680507 33.9530154,18.4393981 34.0940627,18.6501709 C34.1157919,18.6804596 34.1347874,18.7139577 34.1509629,18.749623 L34.1178067,18.6869074 C34.2487488,18.8967683 34.3233614,19.1427466 34.327,19.4016416 L34.327,19.4016416 L34.327,30.5907 C34.327,31.1224398 34.0174352,31.6066035 33.5394317,31.8285194 L33.5394317,31.8285194 L25.9054317,35.4315194 C25.580788,35.5847407 25.1934019,35.4457754 25.0401806,35.1211317 C24.8869593,34.796488 25.0259246,34.4091019 25.3505683,34.2558806 L25.3505683,34.2558806 L32.9882777,30.6511442 C33.0114144,30.6404021 33.027,30.616026 33.027,30.5907 L33.027,30.5907 L33.027,19.9729 L30.081,21.3089 L30.0846,21.3612 L30.0846,27.1102 C30.0846,27.4691851 29.7935851,27.7602 29.4346,27.7602 C29.0756149,27.7602 28.7846,27.4691851 28.7846,27.1102 L28.7846,27.1102 L28.784,21.8969 L25.896477,23.2070629 C25.5992659,23.3418591 25.2538732,23.2344194 25.082129,22.9681419 L25.0360371,22.883577 C24.8877613,22.5566448 25.0325909,22.1714128 25.359523,22.0231371 L25.359523,22.0231371 L27.844,20.8959 L25.3568768,19.756139 C25.0601799,19.6202151 24.9147235,19.2890325 25.0030628,18.9847368 L25.036661,18.8944768 C25.1861772,18.5681102 25.5719566,18.4247447 25.8983232,18.574261 L25.8983232,18.574261 L29.2693065,20.1186537 C29.3160423,20.1393044 29.3612078,20.1623633 29.4046842,20.1876554 L32.097,18.9669 L25.3707713,16.0686367 C25.0710631,15.939488 24.9181207,15.6116953 24.9995243,15.3054712 Z M14.975,20.0369 L14.972,30.5903 C14.972,30.6166124 14.9875734,30.6409965 15.0115797,30.652143 L15.0115797,30.652143 L21.393,33.6259 L21.393,22.8849 L14.975,20.0369 Z M21.393,16.5239 L15.849,19.0019 L21.393,21.4619 L21.393,16.5239 Z" id="icn_pre-pick" fill="#2979FF" fill-rule="nonzero"></path>
    </g>
</svg>