<?xml version="1.0" encoding="UTF-8"?>
<svg width="48px" height="48px" viewBox="0 0 48 48" version="1.1" xmlns="http://www.w3.org/2000/svg" xmlns:xlink="http://www.w3.org/1999/xlink">
    <!-- Generator: Sketch 59.1 (86144) - https://sketch.com -->
    <title>icn_exclamation</title>
    <desc>Created with Sketch.</desc>
    <g id="1024---App-PICKING---Flujo-normal" stroke="none" stroke-width="1" fill="none" fill-rule="evenodd">
        <path d="M25.484,26.948 L22.732,26.948 L22,15 L26.317,15 L25.484,26.948 Z M22.4,31.143 C22.4,30.646 22.553,30.225 22.854,29.886 C23.157,29.55 23.606,29.381 24.201,29.381 C24.792,29.381 25.242,29.55 25.55,29.886 C25.858,30.225 26.011,30.646 26.011,31.143 C26.011,31.643 25.858,32.055 25.55,32.384 C25.242,32.711 24.792,32.875 24.201,32.875 C23.606,32.875 23.157,32.711 22.854,32.384 C22.553,32.055 22.4,31.643 22.4,31.143 L22.4,31.143 Z" id="icn_exclamation" fill="#000000"></path>
    </g>
</svg>