<?xml version="1.0" encoding="UTF-8"?>
<svg width="48px" height="49px" viewBox="0 0 48 49" version="1.1" xmlns="http://www.w3.org/2000/svg" xmlns:xlink="http://www.w3.org/1999/xlink">
    <!-- Generator: Sketch 59.1 (86144) - https://sketch.com -->
    <title>icn_seal</title>
    <desc>Created with Sketch.</desc>
    <g id="1024---App-PICKING---Flujo-normal" stroke="none" stroke-width="1" fill="none" fill-rule="evenodd">
        <path d="M24,1.4999 C36.9788004,1.4999 47.5,12.0214156 47.5,24.9999 C47.5,37.9797004 36.9794844,48.4999 24,48.4999 C11.0205156,48.4999 0.5,37.9797004 0.5,24.9999 C0.5,12.0214156 11.0211996,1.4999 24,1.4999 Z M24,2.4999 C11.5734911,2.4999 1.5,12.5736936 1.5,24.9999 C1.5,37.4274089 11.5727936,47.4999 24,47.4999 C36.4272064,47.4999 46.5,37.4274089 46.5,24.9999 C46.5,12.5736936 36.4265089,2.4999 24,2.4999 Z M24.7507,13.7489 C26.5260162,13.7489 28.1693092,14.6837244 29.0763634,16.2096423 L29.1894383,16.3997682 C29.8622582,17.5316387 31.0809164,18.2249 32.3977,18.2249 L35.7637,18.2249 C36.7792846,18.2249 37.5394695,19.1547494 37.3260818,20.1622107 L33.7284626,35.2971996 C33.5714283,36.0350919 32.9187633,36.5599 32.1627,36.5599 L15.5187,36.5599 C14.7530355,36.5599 14.0928929,36.0208251 13.9504511,35.2845911 L10.6636158,20.1197892 C10.4724082,19.1349858 11.2306303,18.2249 12.2357,18.2249 L15.5027,18.2249 C16.7779375,18.2249 17.9584686,17.575221 18.6423184,16.511025 L18.878267,16.1154184 C19.7940081,14.6482812 21.405687,13.7489 23.1467,13.7489 L24.7507,13.7489 Z M24.7507,15.0489 L23.1467,15.0489 C21.8717427,15.0489 20.6902638,15.6992302 20.006903,16.7629989 L19.7709517,17.1585997 C18.854526,18.6262721 17.243919,19.5249 15.5027,19.5249 L12.2357,19.5249 C12.0448281,19.5249 11.9049807,19.6927574 11.9369489,19.8582089 L15.2238396,35.0232964 C15.250252,35.1596579 15.3730068,35.2599 15.5187,35.2599 L32.1627,35.2599 C32.306869,35.2599 32.4280197,35.1624827 32.4603182,35.0115893 L36.0577811,19.877337 C36.0960255,19.6966016 35.9556533,19.5249 35.7637,19.5249 L32.3977,19.5249 C30.6223838,19.5249 28.9790908,18.5900756 28.0720366,17.0641577 L27.9589617,16.8740318 C27.2861418,15.7421613 26.0674836,15.0489 24.7507,15.0489 Z M25.0755413,17.4048642 C25.3222115,17.2807334 25.622805,17.3800712 25.7469358,17.6267413 L25.7469358,17.6267413 L27.883,21.8719 L32.2161,21.8728 C32.5376762,21.8728 32.775638,22.1719805 32.7032772,22.4853096 L30.4402772,32.2843096 C30.3878933,32.5111367 30.1858973,32.6718 29.9531,32.6718 L17.8601,32.6718 C17.6239139,32.6718 17.419941,32.5065296 17.370967,32.2754768 L15.293967,22.4764768 C15.2280561,22.1655183 15.465233,21.8728 15.7831,21.8728 L20.115,21.8719 L22.2520642,17.6267413 C22.3624027,17.407479 22.6121685,17.3046274 22.8395541,17.3716594 L22.9234587,17.4048642 C23.1701288,17.528995 23.2694666,17.8295885 23.1453358,18.0762587 L23.1453358,18.0762587 L21.235,21.8719 L26.763,21.8719 L24.8536642,18.0762587 C24.7433257,17.8569963 24.809555,17.5951278 24.9988791,17.4524607 Z M19.612,22.8719 L16.4001886,22.8728 L18.2652282,31.6718 L29.5554106,31.6718 L31.5874687,22.8728 L28.386,22.8719 L29.1009358,24.2917413 C29.2112743,24.5110037 29.145045,24.7728722 28.9557209,24.9155393 L28.8790587,24.9631358 C28.6323885,25.0872666 28.331795,24.9879288 28.2076642,24.7412587 L28.2076642,24.7412587 L27.266,22.8719 L20.732,22.8719 L19.7913358,24.7412587 C19.6809973,24.960521 19.4312315,25.0633726 19.2038459,24.9963406 L19.1199413,24.9631358 C18.8732712,24.839005 18.7739334,24.5384115 18.8980642,24.2917413 L18.8980642,24.2917413 L19.612,22.8719 Z" id="icn_seal" fill="#2979FF" fill-rule="nonzero"></path>
    </g>
</svg>