<?xml version="1.0" encoding="UTF-8"?>
<svg width="78px" height="78px" viewBox="0 0 78 78" version="1.1" xmlns="http://www.w3.org/2000/svg" xmlns:xlink="http://www.w3.org/1999/xlink">
    <!-- Generator: Sketch 59.1 (86144) - https://sketch.com -->
    <title>icn_no-battery</title>
    <desc>Created with Sketch.</desc>
    <g id="1024---App-PICKING---Flujo-normal" stroke="none" stroke-width="1" fill="none" fill-rule="evenodd">
        <path d="M39,0.25 C60.401261,0.25 77.75,17.5996914 77.75,39 C77.75,60.4022847 60.4022847,77.75 39,77.75 C17.5977153,77.75 0.25,60.4022847 0.25,39 C0.25,17.5996914 17.598739,0.25 39,0.25 Z M39,2.25 C18.7033331,2.25 2.25,18.7042363 2.25,39 C2.25,59.2977153 18.7022847,75.75 39,75.75 C59.2977153,75.75 75.75,59.2977153 75.75,39 C75.75,18.7042363 59.2966669,2.25 39,2.25 Z M52.7357,27.9839 C53.2819096,27.9839 53.7247,28.4266904 53.7247,28.9729 L53.724,33.469 L58.2257,33.4699 C58.7719096,33.4699 59.2147,33.9126904 59.2147,34.4589 L59.2147,43.5389 C59.2147,44.0851096 58.7719096,44.5279 58.2257,44.5279 L53.724,44.527 L53.7247,49.0249 C53.7247,49.5711096 53.2819096,50.0139 52.7357,50.0139 L21.7747,50.0139 C21.2284904,50.0139 20.7857,49.5711096 20.7857,49.0249 L20.7857,28.9729 C20.7857,28.4266904 21.2284904,27.9839 21.7747,27.9839 L52.7357,27.9839 Z M51.7467,29.9619 L22.7637,29.9619 L22.7637,48.0359 L51.7467,48.0359 L51.7467,29.9619 Z M40.2675042,33.6579647 L42.5986958,35.9894353 L39.587,39 L42.5986958,42.0114647 L40.2675042,44.3429353 L37.256,41.331 L34.2446958,44.3424353 L31.9135042,42.0109647 L34.924,39 L31.9135042,35.9899353 L34.2446958,33.6584647 L37.255,36.669 L40.2675042,33.6579647 Z M57.2367,35.4479 L53.7247,35.4479 L53.7247,42.5499 L57.2367,42.5499 L57.2367,35.4479 Z" id="icn_no-battery" fill="#FFFFFF" fill-rule="nonzero"></path>
    </g>
</svg>