<?xml version="1.0" encoding="UTF-8"?>
<svg width="24px" height="24px" viewBox="0 0 24 24" version="1.1" xmlns="http://www.w3.org/2000/svg" xmlns:xlink="http://www.w3.org/1999/xlink">
    <!-- Generator: Sketch 59.1 (86144) - https://sketch.com -->
    <title>icn_pre-picking</title>
    <desc>Created with Sketch.</desc>
    <g id="1024---App-PICKING---Flujo-normal" stroke="none" stroke-width="1" fill="none" fill-rule="evenodd">
        <path d="M3,6.8328 L12.179,10.9988 L12.179,21.3028 C12.072,21.2918 11.968,21.2638 11.871,21.2088 L11.871,21.2088 L11.776,21.1548 C11.717,21.1718 11.656,21.1798 11.598,21.1798 C11.5,21.1798 11.402,21.1588 11.313,21.1178 L11.313,21.1178 L3.39,17.4238 C3.152,17.3128 3,17.0748 3,16.8128 L3,16.8128 L3,6.8328 Z M14.0108,19.1385 L14.7148,20.4965 L13.7968,20.9725 L13.0918,19.6175 L14.0108,19.1385 Z M17.2864,17.4394 L17.9914,18.7954 L16.3534,19.6464 L15.6484,18.2894 L17.2864,17.4394 Z M20.9596,15.7546 L20.9596,16.7896 C20.9596,17.0766 20.8016,17.3386 20.5476,17.4696 L20.5476,17.4696 L19.6306,17.9456 L18.9236,16.5886 L19.4306,16.3246 L19.4306,15.7546 L20.9596,15.7546 Z M20.9592,12.3983 L20.9592,14.0763 L19.4302,14.0763 L19.4302,12.3983 L20.9592,12.3983 Z M20.9592,9.0413 L20.9592,10.7193 L19.4302,10.7193 L19.4302,9.0413 L20.9592,9.0413 Z M14.7896,8.3438 L15.3996,9.7468 L13.7496,10.4648 L13.1396,9.0628 L14.7896,8.3438 Z M12.1788,2 L12.1788,9.518 L3.6798,5.66 L8.0038,3.641 L11.3128,2.094 C11.4808,2.016 11.6678,2.03 11.8388,2.096 L11.8388,2.096 L11.9418,2.051 C12.0178,2.016 12.0978,2.01 12.1788,2 L12.1788,2 Z M17.6793,7.086 L18.2893,8.491 L16.6383,9.207 L16.0283,7.805 L17.6793,7.086 Z M19.5785,5.1972 L20.5175,5.6332 C20.7875,5.7582 20.9595,6.0292 20.9595,6.3282 L20.9595,6.3282 L20.9595,7.3632 L19.4305,7.3632 L19.4305,6.8172 L18.9335,6.5862 L19.5785,5.1972 Z M16.3291,3.6917 L17.9531,4.4437 L17.3101,5.8327 L15.6851,5.0807 L16.3291,3.6917 Z M13.768,2.5018 L14.705,2.9378 L14.06,4.3268 L13.122,3.8888 L13.768,2.5018 Z" id="icn_pre-picking" fill="#000000"></path>
    </g>
</svg>