<?xml version="1.0" encoding="UTF-8"?>
<svg width="24px" height="24px" viewBox="0 0 24 24" version="1.1" xmlns="http://www.w3.org/2000/svg" xmlns:xlink="http://www.w3.org/1999/xlink">
    <!-- Generator: Sketch 59.1 (86144) - https://sketch.com -->
    <title>icn_new-order</title>
    <desc>Created with Sketch.</desc>
    <g id="1024---App-PICKING---Flujo-normal" stroke="none" stroke-width="1" fill="none" fill-rule="evenodd">
        <path d="M12.2463,19.392108 L12.9293,20.861108 L12.0743,21.259108 C11.9653,21.310108 11.8483,21.335108 11.7323,21.335108 C11.6153,21.335108 11.4983,21.310108 11.3903,21.259108 L11.3903,21.259108 L10.5333,20.861108 L11.2163,19.392108 L11.7323,19.632108 L12.2463,19.392108 Z M16.457,17.429208 L17.141,18.897208 L14.93,19.927208 L14.246,18.460208 L16.457,17.429208 Z M7.0081,17.428708 L9.2191,18.460708 L8.5331,19.926708 L6.3231,18.897708 L7.0081,17.428708 Z M20.4666,15.887708 L20.4666,16.831708 C20.4666,17.147708 20.2826,17.432708 19.9976,17.565708 L19.9976,17.565708 L19.1416,17.965708 L18.4576,16.497708 L18.8456,16.315708 L18.8456,15.887708 L20.4666,15.887708 Z M4.619,15.887908 L4.619,16.315908 L5.008,16.496908 L4.324,17.965908 L3.468,17.565908 C3.181,17.432908 3,17.147908 3,16.830908 L3,16.830908 L3,15.887908 L4.619,15.887908 Z M12.5415,15.787808 L12.5415,17.676808 L10.9215,17.676808 L10.9215,15.787808 L12.5415,15.787808 Z M4.6195,12.416808 L4.6195,14.238808 L3.0005,14.238808 L3.0005,12.416808 L4.6195,12.416808 Z M20.4665,12.405808 L20.4665,14.233808 L18.8455,14.233808 L18.8455,12.405808 L20.4665,12.405808 Z M12.5415,12.188808 L12.5415,14.077808 L10.9215,14.077808 L10.9215,12.188808 L12.5415,12.188808 Z M11.2285,9.23530798 L11.7205,9.46630798 L12.1835,9.24730798 L12.8725,10.714308 L12.0665,11.093308 C11.9575,11.143308 11.8395,11.169308 11.7225,11.169308 C11.6055,11.169308 11.4885,11.143308 11.3795,11.093308 L11.3795,11.093308 L10.5445,10.704308 L11.2285,9.23530798 Z M4.6195,8.94680798 L4.6195,10.768808 L3.0005,10.768808 L3.0005,8.94680798 L4.6195,8.94680798 Z M20.4665,8.92480798 L20.4665,10.752808 L18.8455,10.752808 L18.8455,8.92480798 L20.4665,8.92480798 Z M14.9989,8.04420798 L15.6069,9.44620798 L13.9579,10.165208 L13.3479,8.76320798 L14.9989,8.04420798 Z M8.4194,8.04450798 L10.0704,8.76250798 L9.4604,10.165508 L7.8104,9.44650798 L8.4194,8.04450798 Z M17.8875,6.78650798 L18.4975,8.19050798 L16.8475,8.90750798 L16.2375,7.50550798 L17.8875,6.78650798 Z M5.5312,6.78650798 L7.1812,7.50550798 L6.5722,8.90750798 L4.9222,8.19050798 L5.5312,6.78650798 Z M4.342,5.23020798 L5.003,6.70620798 L4.619,6.87820798 L4.619,7.29820798 L3,7.29820798 L3,6.35520798 C3,6.03420798 3.187,5.74520798 3.478,5.61420798 L3.478,5.61420798 L4.342,5.23020798 Z M19.1213,5.20420798 L19.9843,5.58720798 C20.2773,5.71620798 20.4663,6.00720798 20.4663,6.32720798 L20.4663,6.32720798 L20.4663,7.27320798 L18.8453,7.27320798 L18.8453,6.85520798 L18.4633,6.68520798 L19.1213,5.20420798 Z M8.543,3.34840798 L9.204,4.82740798 L6.998,5.81340798 L6.338,4.33540798 L8.543,3.34840798 Z M14.9199,3.33860798 L17.1249,4.31760798 L16.4679,5.79760798 L14.2619,4.81960798 L14.9199,3.33860798 Z M11.4003,2.07150798 C11.6113,1.97750798 11.8503,1.97550798 12.0603,2.06950798 L12.0603,2.06950798 L12.9233,2.45250798 L12.2663,3.93250798 L11.7333,3.69650798 L11.2003,3.93450798 L10.5393,2.45650798 Z" id="icn_new-order" fill="#000000"></path>
    </g>
</svg>