<?xml version="1.0" encoding="UTF-8"?>
<svg width="47px" height="47px" viewBox="0 0 47 47" version="1.1" xmlns="http://www.w3.org/2000/svg" xmlns:xlink="http://www.w3.org/1999/xlink">
    <!-- Generator: Sketch 59.1 (86144) - https://sketch.com -->
    <title>icn_picker-info</title>
    <desc>Created with Sketch.</desc>
    <g id="1024---App-PICKING---Flujo-normal" stroke="none" stroke-width="1" fill="none" fill-rule="evenodd">
        <path d="M23.5,0 C36.4788004,0 47,10.5215156 47,23.5 C47,36.4798004 36.4794844,47 23.5,47 C10.5205156,47 0,36.4798004 0,23.5 C0,10.5215156 10.5211996,0 23.5,0 Z M23.5,1 C11.0734911,1 1,11.0737936 1,23.5 C1,35.9275089 11.0727936,46 23.5,46 C35.9272064,46 46,35.9275089 46,23.5 C46,11.0737936 35.9265089,1 23.5,1 Z M26.0031875,24.7231875 C30.580825,24.7231875 34.7501375,28.5763375 34.7501375,32.8066875 L34.7501375,32.8066875 L34.7501375,34.1201625 C34.7501375,34.465625 34.4706,34.7451625 34.1251375,34.7451625 L34.1251375,34.7451625 L12.8751375,34.7451625 C12.529675,34.7451625 12.2501375,34.465625 12.2501375,34.1201625 L12.2501375,34.1201625 L12.2501375,32.8066875 C12.2501375,28.5763375 16.4188375,24.7231875 20.996475,24.7231875 C21.0947375,24.7231875 21.1917875,24.7463875 21.2790625,24.7909375 L21.2790625,24.7909375 L23.5001375,25.9170375 L25.7206,24.7909375 C25.807875,24.746375 25.904925,24.7231875 26.0031875,24.7231875 Z M26.1496625,25.9750125 L23.782725,27.1749625 C23.605725,27.2653 23.3945375,27.2653 23.2175375,27.1749625 L23.2175375,27.1749625 L20.8499875,25.9750125 C17.0511625,26.0574125 13.5001375,29.3386625 13.5001375,32.806675 L13.5001375,32.806675 L13.5001375,33.49515 L33.5001375,33.49515 L33.5001375,32.806675 C33.5001375,29.3386625 29.9484875,26.0574125 26.1496625,25.9750125 L26.1496625,25.9750125 Z M23.5001375,12.235375 C26.2516,12.235375 28.4897625,14.7579625 28.4897625,17.85855 C28.4897625,22.505775 25.7761375,23.4811125 23.5001375,23.4811125 C21.2241375,23.4811125 18.5105125,22.505775 18.5105125,17.85855 C18.5105125,14.7579625 20.748675,12.235375 23.5001375,12.235375 Z M23.5001375,13.452425 C21.4200625,13.452425 19.72755,15.42875 19.72755,17.8585625 C19.72755,20.8645375 20.926275,22.2640625 23.5001375,22.2640625 C26.074,22.2640625 27.272725,20.8645375 27.272725,17.85855 C27.272725,15.4287375 25.5802125,13.452425 23.5001375,13.452425 Z" id="icn_picker-info" fill="#000000" fill-rule="nonzero"></path>
    </g>
</svg>