<?xml version="1.0" encoding="UTF-8"?>
<svg width="24px" height="24px" viewBox="0 0 24 24" version="1.1" xmlns="http://www.w3.org/2000/svg" xmlns:xlink="http://www.w3.org/1999/xlink" x="0px" y="0px"
 style="enable-background:new 0 0 24 24; fill:white;" xml:space="preserve">
 
    <!-- Generator: Sketch 59.1 (86144) - https://sketch.com -->
    <title>icn_keyboard</title>
    <desc>Created with Sketch.</desc>
    <g id="1024---App-PICKING---Flujo-normal" stroke="none" stroke-width="1"  fill-rule="evenodd">
        <path d="M12.8675,18.4551 C13.3535,18.4551 13.7485,18.7721 13.7485,19.1601 L13.7485,20.1391 C13.7485,20.5301 13.3535,20.8461 12.8675,20.8461 L11.6485,20.8461 C11.1625,20.8461 10.7685,20.5301 10.7685,20.1391 L10.7685,19.1601 C10.7685,18.7721 11.1625,18.4551 11.6485,18.4551 L12.8675,18.4551 Z M17.6351,13.7598 C18.1211,13.7598 18.5161,14.1548 18.5161,14.6408 L18.5161,15.8598 C18.5161,16.3438 18.1211,16.7388 17.6351,16.7388 L16.4161,16.7388 C15.9301,16.7388 15.5361,16.3438 15.5361,15.8598 L15.5361,14.6408 C15.5361,14.1548 15.9301,13.7598 16.4161,13.7598 L17.6351,13.7598 Z M12.8675,13.7598 C13.3535,13.7598 13.7485,14.1548 13.7485,14.6408 L13.7485,15.8598 C13.7485,16.3438 13.3535,16.7388 12.8675,16.7388 L11.6485,16.7388 C11.1625,16.7388 10.7685,16.3438 10.7685,15.8598 L10.7685,14.6408 C10.7685,14.1548 11.1625,13.7598 11.6485,13.7598 L12.8675,13.7598 Z M8.1,13.7598 C8.586,13.7598 8.979,14.1548 8.979,14.6408 L8.979,15.8598 C8.979,16.3438 8.586,16.7388 8.1,16.7388 L6.881,16.7388 C6.395,16.7388 6,16.3438 6,15.8598 L6,14.6408 C6,14.1548 6.395,13.7598 6.881,13.7598 L8.1,13.7598 Z M17.6351,8.8789 C18.1211,8.8789 18.5161,9.2739 18.5161,9.7599 L18.5161,10.9789 C18.5161,11.4649 18.1211,11.8579 17.6351,11.8579 L16.4161,11.8579 C15.9301,11.8579 15.5361,11.4649 15.5361,10.9789 L15.5361,9.7599 C15.5361,9.2739 15.9301,8.8789 16.4161,8.8789 L17.6351,8.8789 Z M12.8675,8.8789 C13.3535,8.8789 13.7485,9.2739 13.7485,9.7599 L13.7485,10.9789 C13.7485,11.4649 13.3535,11.8579 12.8675,11.8579 L11.6485,11.8579 C11.1625,11.8579 10.7685,11.4649 10.7685,10.9789 L10.7685,9.7599 C10.7685,9.2739 11.1625,8.8789 11.6485,8.8789 L12.8675,8.8789 Z M8.1,8.8789 C8.586,8.8789 8.979,9.2739 8.979,9.7599 L8.979,10.9789 C8.979,11.4649 8.586,11.8579 8.1,11.8579 L6.881,11.8579 C6.395,11.8579 6,11.4649 6,10.9789 L6,9.7599 C6,9.2739 6.395,8.8789 6.881,8.8789 L8.1,8.8789 Z M17.6351,4 C18.1211,4 18.5161,4.395 18.5161,4.879 L18.5161,6.098 C18.5161,6.584 18.1211,6.979 17.6351,6.979 L16.4161,6.979 C15.9301,6.979 15.5361,6.584 15.5361,6.098 L15.5361,4.879 C15.5361,4.395 15.9301,4 16.4161,4 L17.6351,4 Z M12.8675,4 C13.3535,4 13.7485,4.395 13.7485,4.879 L13.7485,6.098 C13.7485,6.584 13.3535,6.979 12.8675,6.979 L11.6485,6.979 C11.1625,6.979 10.7685,6.584 10.7685,6.098 L10.7685,4.879 C10.7685,4.395 11.1625,4 11.6485,4 L12.8675,4 Z M8.1,4 C8.586,4 8.979,4.395 8.979,4.879 L8.979,6.098 C8.979,6.584 8.586,6.979 8.1,6.979 L6.881,6.979 C6.395,6.979 6,6.584 6,6.098 L6,4.879 C6,4.395 6.395,4 6.881,4 L8.1,4 Z" id="icn_keyboard" fill="white"></path>
    </g>
</svg>