<?xml version="1.0" encoding="UTF-8"?>
<svg width="48px" height="48px" viewBox="0 0 48 48" version="1.1" xmlns="http://www.w3.org/2000/svg" xmlns:xlink="http://www.w3.org/1999/xlink">
    <!-- Generator: Sketch 59.1 (86144) - https://sketch.com -->
    <title>icn_order-info</title>
    <desc>Created with Sketch.</desc>
    <g id="1024---App-PICKING---Flujo-normal" stroke="none" stroke-width="1" fill="none" fill-rule="evenodd">
        <path d="M24,0.5 C36.9788004,0.5 47.5,11.0215156 47.5,24 C47.5,36.9798004 36.9794844,47.5 24,47.5 C11.0205156,47.5 0.5,36.9798004 0.5,24 C0.5,11.0215156 11.0211996,0.5 24,0.5 Z M24,1.5 C11.5734911,1.5 1.5,11.5737936 1.5,24 C1.5,36.4275089 11.5727936,46.5 24,46.5 C36.4272064,46.5 46.5,36.4275089 46.5,24 C46.5,11.5737936 36.4265089,1.5 24,1.5 Z M23.9992854,34.9421551 L23.9783686,34.9427087 C23.9563513,34.9419623 23.9344995,34.9400794 23.9128875,34.9371074 C23.9061711,34.9354043 23.8991605,34.93434 23.8921551,34.9331575 C23.8692889,34.9299905 23.8470448,34.9249414 23.8251784,34.9187618 C23.7916069,34.9087455 23.758189,34.8964308 23.7253942,34.8811449 L23.7982341,34.9105138 C23.7789623,34.9041561 23.7600215,34.8969115 23.7414733,34.8888195 L23.7253942,34.8811449 L14.5193942,30.5901449 C14.2903994,30.4834083 14.144,30.2536486 14.144,30.001 L14.144,30.001 L14.144,17.825 C14.144,17.8172618 14.1441352,17.8095552 14.1444034,17.8018824 C14.145098,17.7843571 14.1464462,17.7662809 14.1485285,17.7482818 C14.1501259,17.7342555 14.1522449,17.720223 14.1548048,17.706345 C14.157878,17.6889986 14.1616747,17.671904 14.1661529,17.6549685 C14.1702086,17.6411145 14.1744127,17.6274034 14.1790496,17.6138933 C14.1843315,17.5964357 14.1908846,17.5793445 14.1981741,17.5625225 C14.2032509,17.5532546 14.2080101,17.5431578 14.2130175,17.5332073 C14.2216166,17.5133458 14.2320756,17.4946627 14.2435216,17.4764691 C14.2482226,17.4717808 14.2515386,17.4667195 14.2549225,17.461708 C14.2674021,17.440349 14.2828203,17.4200568 14.2995934,17.4006056 C14.3051957,17.3964876 14.3094695,17.3916646 14.3138131,17.3869063 C14.3498857,17.3453112 14.3938239,17.3083279 14.4440575,17.276783 C14.4699982,17.2605334 14.4973203,17.2456574 14.5257342,17.2327663 C14.5266023,17.2325925 14.5276706,17.2321115 14.5287412,17.2316327 L19.3263538,15.0843572 C19.4399889,14.9706896 19.5918967,14.9036951 19.7505785,14.8948491 L23.7347412,13.1146327 C23.9030189,13.0393776 24.0953359,13.0391122 24.2638206,13.1139028 L33.4708206,17.2009028 C33.7323803,17.3170095 33.8615616,17.5634467 33.8569835,17.8077493 L33.857,17.8253 L33.857,30.0013 C33.857,30.2539584 33.7105894,30.4837251 33.4815813,30.5904563 L33.4815813,30.5904563 L24.2745813,34.8814563 C24.2716095,34.8828413 24.2686347,34.8842018 24.2656571,34.885538 C24.260617,34.8874979 24.2556955,34.8896256 24.2507491,34.8916921 C24.1721043,34.9250672 24.0917295,34.9413347 24.0129551,34.9429421 L23.9992854,34.9421551 L23.9992854,34.9421551 Z M32.556,18.818 L29.4802633,20.2614117 C29.3606176,20.3981224 29.1892723,20.4773392 29.0107357,20.4828474 L24.649,22.527 L24.65,33.2722348 L32.557,29.5871108 L32.556,18.818 Z M15.443,18.845 L15.444,29.5868298 L23.349,33.271 L23.349,22.528 L15.443,18.845 Z M32.9324187,29.4121437 L32.557,29.5871108 L32.557,30.0013 L32.9324187,29.4121437 Z M19.833,16.283 L16.3592288,17.8370993 L23.9991556,21.3964785 L27.391,19.805 L19.833,16.283 Z M24.0010817,14.4195989 L21.404,15.58 L28.926,19.085 L31.6417922,17.8113208 L24.0010817,14.4195989 Z" id="icn_order-info" fill="#273947" fill-rule="nonzero"></path>
    </g>
</svg>