<?xml version="1.0" encoding="UTF-8"?>
<svg width="49px" height="49px" viewBox="0 0 49 49" version="1.1" xmlns="http://www.w3.org/2000/svg" xmlns:xlink="http://www.w3.org/1999/xlink">
    <!-- Generator: Sketch 59.1 (86144) - https://sketch.com -->
    <title>icn_picking-libre</title>
    <desc>Created with Sketch.</desc>
    <g id="1024---App-PICKING---Flujo-normal" stroke="none" stroke-width="1" fill="none" fill-rule="evenodd">
        <path d="M24.00005,1.4999 C36.9788504,1.4999 47.50005,12.0214156 47.50005,24.9999 C47.50005,37.9797004 36.9795344,48.4999 24.00005,48.4999 C11.0205656,48.4999 0.50005,37.9797004 0.50005,24.9999 C0.50005,12.0214156 11.0212496,1.4999 24.00005,1.4999 Z M24.00005,2.4999 C11.5735411,2.4999 1.50005,12.5736936 1.50005,24.9999 C1.50005,37.4274089 11.5728436,47.4999 24.00005,47.4999 C36.4272564,47.4999 46.50005,37.4274089 46.50005,24.9999 C46.50005,12.5736936 36.4265589,2.4999 24.00005,2.4999 Z M24.0701646,14.4433214 L27.7248229,17.7441213 L26.8534771,18.7088787 L24.64505,16.7139 L24.64525,35.0058 L23.34525,35.0058 L23.34505,16.6959 L20.7850327,18.7605946 L19.9692673,17.7484054 L24.0701646,14.4433214 Z M16.2838786,18.2824509 L16.9844214,19.3775491 L14.42905,21.0109 L15.4938972,21.3550413 C16.1485562,21.5223522 17.0602639,21.9769644 17.9794302,22.8545117 L18.1764176,23.0490805 C19.7845994,24.6917378 20.74095,27.1334669 20.74095,30.4888 L20.74095,30.4888 L20.74095,35.0058 L19.44095,35.0058 L19.44095,30.4888 C19.44095,27.4671331 18.6130506,25.3533622 17.2474824,23.9585195 C16.778457,23.4794394 16.2780446,23.1215993 15.7806811,22.8675167 C15.4914241,22.7197472 15.2761402,22.641173 15.1336448,22.6034901 L15.1336448,22.6034901 L13.71305,22.1449 L15.0088808,25.1139907 L13.8174192,25.6340093 L11.8474613,21.1204615 L16.2838786,18.2824509 Z M31.589384,18.282491 L36.0246138,21.1204568 L34.0558353,25.6338844 L32.8642647,25.1141156 L34.15005,22.1639 L32.8184289,22.6145506 C32.7886862,22.6221535 32.7498722,22.6339979 32.7028537,22.6504858 L32.6262809,22.6787505 L32.4388155,22.7573816 L32.2099245,22.8674915 C31.71268,23.1215667 31.2123846,23.4793983 30.7434654,23.9584707 C29.3781834,25.3533142 28.55045,27.4671055 28.55045,30.4888 L28.55045,30.4888 L28.55045,35.0058 L27.25045,35.0058 L27.25045,30.4888 C27.25045,27.1334945 28.2065916,24.6917858 29.8144346,23.0491293 C30.7988423,22.0434069 31.795165,21.5343196 32.44895,21.3691477 L32.44895,21.3691477 L33.46405,21.0249 L30.888716,19.377509 L31.589384,18.282491 Z" id="icn_picking-libre" fill="#2979FF" fill-rule="nonzero"></path>
    </g>
</svg>