<?xml version="1.0" encoding="UTF-8"?>
<svg width="48px" height="49px" viewBox="0 0 48 49" version="1.1" xmlns="http://www.w3.org/2000/svg" xmlns:xlink="http://www.w3.org/1999/xlink">
    <!-- Generator: Sketch 59.1 (86144) - https://sketch.com -->
    <title>icn_single-product</title>
    <desc>Created with Sketch.</desc>
    <g id="1024---App-PICKING---Flujo-normal" stroke="none" stroke-width="1" fill="none" fill-rule="evenodd">
        <path d="M24,1.4999 C36.9788004,1.4999 47.5,12.0214156 47.5,24.9999 C47.5,37.9797004 36.9794844,48.4999 24,48.4999 C11.0205156,48.4999 0.5,37.9797004 0.5,24.9999 C0.5,12.0214156 11.0211996,1.4999 24,1.4999 Z M1.5,24.9999 C1.5,37.4274089 11.5727936,47.4999 24,47.4999 C30.1054966,47.4999 35.6426933,45.0686375 39.6962792,41.1213157 L33.741,35.2519 L33.7300626,35.2969996 C33.5828914,35.9885458 32.9993604,36.4932381 32.304632,36.5536233 L32.1643,36.5597 L15.5193,36.5597 C14.75399,36.5597 14.0947009,36.0210065 13.9520579,35.2854224 L13.9520579,35.2854224 L10.6642158,20.1195892 C10.4730082,19.1347858 11.2312303,18.2247 12.2363,18.2247 L12.2363,18.2247 L15.5043,18.2247 C15.794654,18.2247 16.0820078,18.1909948 16.3616942,18.1250021 L7.65260158,9.53982842 C3.83876027,13.5711726 1.5,19.0124567 1.5,24.9999 Z M24,2.4999 C17.9204548,2.4999 12.404118,4.91112071 8.35507569,8.82936973 L40.3968676,40.408288 C44.181512,36.3823751 46.5,30.9621686 46.5,24.9999 C46.5,12.5736936 36.4265089,2.4999 24,2.4999 Z M17.405,19.1519 C16.7999616,19.3980165 16.1575367,19.5247 15.5043,19.5247 L15.5043,19.5247 L12.2363,19.5247 C12.0454281,19.5247 11.9055807,19.6925574 11.9375421,19.8579776 L11.9375421,19.8579776 L15.2253875,35.0238275 C15.2517886,35.159824 15.3740236,35.2597 15.5193,35.2597 L15.5193,35.2597 L32.1643,35.2597 C32.3079217,35.2597 32.4297136,35.1618414 32.461986,35.0111045 L32.461986,35.0111045 L32.622986,34.3351045 C32.6343721,34.2872972 32.6507685,34.2419927 32.6714862,34.1996151 L30.495,32.0529 L30.4411935,32.2850713 C30.3952377,32.4833926 30.2349027,32.631047 30.0396741,32.6648619 L29.9541,32.6722 L17.8611,32.6722 C17.6249139,32.6722 17.420941,32.5069296 17.371967,32.2758768 L17.371967,32.2758768 L15.294967,22.4768768 C15.2290561,22.1659183 15.466233,21.8732 15.7841,21.8732 L15.7841,21.8732 L20.166,21.8729 L17.405,19.1519 Z M24.7518,13.7496 C26.5274397,13.7496 28.1705742,14.683702 29.0782272,16.21063 L29.0782272,16.21063 L29.1904284,16.4002834 C29.8633486,17.5314708 31.0821868,18.2246 32.3988,18.2246 L32.3988,18.2246 L35.7638,18.2246 C36.7793365,18.2246 37.5405805,19.1543974 37.3271789,20.1619228 L37.3271789,20.1619228 L34.6821789,31.2889228 C34.5991579,31.638176 34.2487304,31.8539999 33.8994772,31.7709789 C33.550224,31.6879579 33.3344001,31.3375304 33.4174211,30.9882772 L33.4174211,30.9882772 L36.0588811,19.877037 C36.0970431,19.6966911 35.9561486,19.5246 35.7638,19.5246 L35.7638,19.5246 L32.3988,19.5246 C30.6237976,19.5246 28.9804479,18.5900595 28.0723728,17.06357 L28.0723728,17.06357 L27.9600617,16.8737318 C27.2874803,15.7422625 26.0690506,15.0496 24.7518,15.0496 L24.7518,15.0496 L23.1478,15.0496 C21.7974517,15.0496 20.5523345,15.7780583 19.8915649,16.9548414 C19.715805,17.267857 19.3195742,17.3791247 19.0065586,17.2033649 C18.693543,17.027605 18.5822753,16.6313742 18.7580351,16.3183586 C19.6489761,14.731657 21.3275568,13.7496 23.1478,13.7496 L23.1478,13.7496 Z M21.176,22.8689 L21.1281,22.8732 L20.731,22.8729 L19.7923932,24.7411446 C19.6821108,24.9604351 19.4323712,25.0633505 19.2049684,24.9963765 L19.1210554,24.9631932 C18.8743536,24.8391255 18.774939,24.5385573 18.8990068,24.2918554 L18.8990068,24.2918554 L19.612,22.8729 L16.4011886,22.8732 L18.2662282,31.6722 L29.5567136,31.6722 L29.6350065,31.3343287 C29.6428324,31.3005563 29.6539093,31.2683832 29.6678299,31.2380633 L21.176,22.8689 Z M25.0765413,17.4048642 C25.3232115,17.2807334 25.623805,17.3800712 25.7479358,17.6267413 L25.7479358,17.6267413 L27.884,21.8729 L32.2169,21.873 C32.5092523,21.873 32.7324943,22.120273 32.716287,22.4006458 L32.704071,22.4855365 L31.318071,28.4855365 C31.2559188,28.7545936 30.9874206,28.9223231 30.7183635,28.860171 C30.4493064,28.7980188 30.2815769,28.5295206 30.343729,28.2604635 L30.343729,28.2604635 L31.5882331,22.873 L28.387,22.8729 L29.1019358,24.2917413 C29.2122743,24.5110037 29.146045,24.7728722 28.9567209,24.9155393 L28.8800587,24.9631358 C28.6333885,25.0872666 28.332795,24.9879288 28.2086642,24.7412587 L28.2086642,24.7412587 L27.268,22.8729 L24.7959,22.873 C24.5504401,22.873 24.3462916,22.6961248 24.3039557,22.4628756 L24.2959,22.373 C24.2959,22.0968576 24.5197576,21.873 24.7959,21.873 L24.7959,21.873 L26.765,21.8729 L24.8546642,18.0762587 C24.7443257,17.8569963 24.810555,17.5951278 24.9998791,17.4524607 Z M22.2527104,17.6267496 C22.3768918,17.380105 22.6775057,17.2808289 22.9241504,17.4050104 C23.170795,17.5291918 23.2700711,17.8298057 23.1458896,18.0764504 L23.1458896,18.0764504 L22.3508896,19.6554504 C22.2267082,19.902095 21.9260943,20.0013711 21.6794496,19.8771896 C21.432805,19.7530082 21.3335289,19.4523943 21.4577104,19.2057496 L21.4577104,19.2057496 Z" id="icn_single-product" fill="#2979FF" fill-rule="nonzero"></path>
    </g>
</svg>