<?xml version="1.0" encoding="UTF-8"?>
<svg width="24px" height="24px" viewBox="0 0 24 24" version="1.1" xmlns="http://www.w3.org/2000/svg" xmlns:xlink="http://www.w3.org/1999/xlink" >
    <!-- Generator: Sketch 59.1 (86144) - https://sketch.com -->
    <title>icn_menu-irregular</title>
    <desc>Created with Sketch.</desc>
    <g id="1024---App-PICKING---Flujo-normal" stroke="none" stroke-width="1" fill="none" fill-rule="evenodd">
        <path d="M15.205,17 C15.7572847,17 16.205,17.4477153 16.205,18 C16.205,18.5522847 15.7572847,19 15.205,19 L15.205,19 L5,19 C4.44771525,19 4,18.5522847 4,18 C4,17.4477153 4.44771525,17 5,17 L5,17 Z M19,11 C19.5522847,11 20,11.4477153 20,12 C20,12.5522847 19.5522847,13 19,13 L19,13 L5,13 C4.44771525,13 4,12.5522847 4,12 C4,11.4477153 4.44771525,11 5,11 L5,11 Z M15.205,5 C15.7572847,5 16.205,5.44771525 16.205,6 C16.205,6.55228475 15.7572847,7 15.205,7 L15.205,7 L5,7 C4.44771525,7 4,6.55228475 4,6 C4,5.44771525 4.44771525,5 5,5 L5,5 Z" id="icn_menu-irregular" fill="white" fill-rule="nonzero"></path>
    </g>
</svg>