<?xml version="1.0" encoding="UTF-8"?>
<svg width="32px" height="32px" viewBox="0 0 32 32" version="1.1" xmlns="http://www.w3.org/2000/svg" xmlns:xlink="http://www.w3.org/1999/xlink" >
    <!-- Generator: Sketch 59.1 (86144) - https://sketch.com -->
    <title>icn_cloud</title>
    <desc>Created with Sketch.</desc>
    <g id="1024---App-PICKING---Flujo-normal" stroke="none" stroke-width="1" fill="none" fill-rule="evenodd">
        <path d="M18.009,5.7155 C21.8038872,5.7155 24.882,8.79396003 24.882,12.5885 C24.882,12.6892851 24.8794124,12.7902919 24.874308,12.8919999 C28.1077097,13.3942475 30.569,16.1872987 30.569,19.5455 C30.569,23.2668656 27.5520616,26.2845 23.831,26.2845 L10.212,26.2845 C5.36278644,26.2845 1.431,22.3527136 1.431,17.5035 C1.431,12.6551174 5.36295553,8.7235 10.212,8.7235 C10.7474411,8.7235 11.277195,8.77208898 11.7971047,8.8674598 L12.1851261,8.94773127 L12.3266994,8.73043466 C13.5865967,6.87382749 15.6944196,5.7155 18.009,5.7155 Z M18.009,7.2155 C15.9671628,7.2155 14.131182,8.36900089 13.220654,10.1612085 L12.9357091,10.7220704 L12.3338217,10.5390641 C11.6487964,10.3307794 10.9370171,10.2235 10.212,10.2235 C6.19135378,10.2235 2.931,13.4835734 2.931,17.5035 C2.931,21.5242864 6.19121356,24.7845 10.212,24.7845 L23.831,24.7845 C26.723557,24.7845 29.069,22.4385159 29.069,19.5455 C29.069,16.7242316 26.8336338,14.4159352 24.0211062,14.3150177 L23.1730902,14.2845896 L23.3074632,13.4467347 C23.356823,13.1389614 23.382,12.858787 23.382,12.5885 C23.382,9.62234928 20.9754222,7.2155 18.009,7.2155 Z M18.1514602,12.6364853 L20.0225398,14.2945147 L14.0552241,21.0286064 L10.3242433,17.5167022 L12.0377567,15.6962978 L13.8927759,17.4423936 L18.1514602,12.6364853 Z" id="icn_cloud" fill="#00D8B4" fill-rule="nonzero"></path>
    </g>
</svg>