<?xml version="1.0" encoding="UTF-8"?>
<svg width="48px" height="48px" viewBox="0 0 48 48" version="1.1" xmlns="http://www.w3.org/2000/svg" xmlns:xlink="http://www.w3.org/1999/xlink">
    <!-- Generator: Sketch 59.1 (86144) - https://sketch.com -->
    <title>icn_unpick</title>
    <desc>Created with Sketch.</desc>
    <g id="1024---App-PICKING---Flujo-normal" stroke="none" stroke-width="1" fill="none" fill-rule="evenodd">
        <path d="M24,0.5 C36.9788004,0.5 47.5,11.0215156 47.5,24 C47.5,36.9798004 36.9794844,47.5 24,47.5 C11.0205156,47.5 0.5,36.9798004 0.5,24 C0.5,11.0215156 11.0211996,0.5 24,0.5 Z M1.5,24 C1.5,36.4275089 11.5727936,46.5 24,46.5 C29.9405961,46.5 35.3431756,44.1982936 39.3646062,40.4379141 L28.4126559,29.6436679 L28.413,30.6159 L27.714,30.6159 L27.7136559,28.9546679 L25.9426559,27.2086679 L25.943,30.6159 L25.245,30.6159 L25.2446559,26.5206679 L23.3736559,24.6766679 L23.374,30.6159 L22.073,30.6159 L22.0726559,23.3946679 L20.1326559,21.4826679 L20.133,30.6159 L19.434,30.6159 L19.4336559,20.7946679 L17.3116559,18.7036679 L17.312,30.6159 L16.011,30.6159 L16.011,18.4609 L17.0656559,18.4606679 L7.34064832,8.87643921 C3.71162253,12.8716151 1.5,18.1775729 1.5,24 Z M24,1.5 C18.115827,1.5 12.7592455,3.75873688 8.74995159,7.45641829 L8.85665591,7.56266795 L8.5,7.92701035 L40.4767761,39.322944 C44.214121,35.3059443 46.5,29.9201912 46.5,24 C46.5,11.5737936 36.4265089,1.5 24,1.5 Z M31.62,18.4609 L31.619901,27.9109 L30.318901,26.6339 L30.319,18.4609 L31.62,18.4609 Z M28.413,18.4619 L28.412901,24.7619 L27.713901,24.0759 L27.714,18.4619 L28.413,18.4619 Z M25.943,18.4619 L25.942901,22.3369 L25.244901,21.6519 L25.245,18.4619 L25.943,18.4619 Z M23.374,18.4609 L23.373901,19.8149 L22.072901,18.5379 L22.073,18.4609 L23.374,18.4609 Z" id="icn_unpick" fill="#F13B70" fill-rule="nonzero"></path>
    </g>
</svg>