<?xml version="1.0" encoding="UTF-8"?>
<svg width="49px" height="49px" viewBox="0 0 49 49" version="1.1" xmlns="http://www.w3.org/2000/svg" xmlns:xlink="http://www.w3.org/1999/xlink">
    <!-- Generator: Sketch 59.1 (86144) - https://sketch.com -->
    <title>icn_restart</title>
    <desc>Created with Sketch.</desc>
    <g id="1024---App-PICKING---Flujo-normal" stroke="none" stroke-width="1" fill="none" fill-rule="evenodd">
        <path d="M24.99975,1.4999 C37.9785504,1.4999 48.49975,12.0214156 48.49975,24.9999 C48.49975,37.9797004 37.9792344,48.4999 24.99975,48.4999 C12.0202656,48.4999 1.49975,37.9797004 1.49975,24.9999 C1.49975,12.0214156 12.0209496,1.4999 24.99975,1.4999 Z M24.99975,2.4999 C12.5732411,2.4999 2.49975,12.5736936 2.49975,24.9999 C2.49975,37.4274089 12.5725436,47.4999 24.99975,47.4999 C37.4269564,47.4999 47.49975,37.4274089 47.49975,24.9999 C47.49975,12.5736936 37.4262589,2.4999 24.99975,2.4999 Z M17.0427643,22.2065939 L21.1868313,25.1746571 L20.4298687,26.2315429 L17.7763143,24.3314898 C17.6099583,27.2892471 19.279268,30.1022093 22.0518213,31.3403703 C24.9756955,32.6444796 28.3857586,31.8648018 30.4591246,29.4868313 L30.4591246,29.4868313 L31.4389754,30.3411687 C28.9928816,33.1466255 24.9715306,34.0660684 21.5220031,32.5275066 C18.37062,31.1201687 16.427713,27.988933 16.4654505,24.6406828 L14.1358136,26.9998575 L13.2108864,26.0863425 L17.0427643,22.2065939 Z M18.5447508,19.2000455 C20.9883432,16.3938272 25.0097951,15.4745309 28.4598601,17.0133323 C31.6139665,18.4210145 33.5575965,21.5538067 33.5169742,24.9019952 L35.8480864,22.5411425 L36.7730136,23.4546575 L32.941065,27.3344776 L28.7969741,24.3652752 L29.5541259,23.3085248 L32.2059697,25.2075946 C32.3740405,22.2515536 30.7045239,19.438724 27.9301787,18.2005297 C25.0057349,16.8961664 21.5959639,17.6756335 19.5251492,20.0537545 L19.5251492,20.0537545 Z" id="icn_restart" fill="#2979FF" fill-rule="nonzero"></path>
    </g>
</svg>