<?xml version="1.0" encoding="UTF-8"?>
<svg width="48px" height="49px" viewBox="0 0 48 49" version="1.1" xmlns="http://www.w3.org/2000/svg" xmlns:xlink="http://www.w3.org/1999/xlink">
    <!-- Generator: Sketch 59.1 (86144) - https://sketch.com -->
    <title>icn_full-basket</title>
    <desc>Created with Sketch.</desc>
    <g id="1024---App-PICKING---Flujo-normal" stroke="none" stroke-width="1" fill="none" fill-rule="evenodd">
        <path d="M24,1.4999 C36.9788004,1.4999 47.5,12.0214156 47.5,24.9999 C47.5,37.9797004 36.9794844,48.4999 24,48.4999 C11.0205156,48.4999 0.5,37.9797004 0.5,24.9999 C0.5,12.0214156 11.0211996,1.4999 24,1.4999 Z M24,2.4999 C11.5734911,2.4999 1.5,12.5736936 1.5,24.9999 C1.5,37.4274089 11.5727936,47.4999 24,47.4999 C36.4272064,47.4999 46.5,37.4274089 46.5,24.9999 C46.5,12.5736936 36.4265089,2.4999 24,2.4999 Z M25.2649411,15.84451 C25.5855921,15.6830999 25.9763799,15.8121901 26.13779,16.1328411 L26.13779,16.1328411 L28.683,21.1899 L33.8409,21.1901 C34.2589468,21.1901 34.5682967,21.5790307 34.4742315,21.9863572 L31.7642315,33.7213572 C31.6961345,34.016235 31.4335386,34.2251 31.1309,34.2251 L16.6479,34.2251 C16.3408908,34.2251 16.0757449,34.0102933 16.0120452,33.7099652 L13.5230452,21.9749652 C13.4372994,21.5706957 13.7456372,21.1901 14.1589,21.1901 L19.316,21.1899 L21.8611808,16.1328991 C22.0064211,15.8442987 22.3374727,15.710844 22.635997,15.8046836 L22.7340009,15.8444808 C23.054668,16.0058589 23.1837973,16.3966337 23.0224192,16.7173009 L23.0224192,16.7173009 L20.771,21.1899 L27.228,21.1899 L24.97661,16.7173589 C24.8313409,16.428773 24.9213771,16.0833763 25.1745916,15.8995149 Z M18.661,22.4899 L14.9612252,22.4901 L17.1744945,32.9251 L30.6138994,32.9251 L33.0236863,22.4901 L29.338,22.4899 L30.15579,24.1148411 C30.3010591,24.403427 30.2110229,24.7488237 29.9578084,24.9326851 L29.8674589,24.98769 C29.5468079,25.1491001 29.1560201,25.0200099 28.99461,24.6993589 L28.99461,24.6993589 L27.882,22.4899 L20.117,22.4899 L19.0054192,24.6993009 C18.8601789,24.9879013 18.5291273,25.121356 18.230603,25.0275164 L18.1325991,24.9877192 C17.811932,24.8263411 17.6828027,24.4355663 17.8441808,24.1148991 L17.8441808,24.1148991 L18.661,22.4899 Z M26.0344988,24.7684429 L27.2377012,25.6641571 L23.5268339,30.6489217 L20.9932829,28.0018887 L22.0769171,26.9647113 L23.3833661,28.3296783 L26.0344988,24.7684429 Z" id="icn_full-basket" 
        fill="#2979FF" fill-rule="nonzero"></path>
    </g>
</svg>