<!-- Generated by IcoMoon.io -->
<svg version="1.1" xmlns="http://www.w3.org/2000/svg" width="6068" height="1024" viewBox="0 0 6068 1024">
<title></title>
<g id="icomoon-ignore">
</g>
<path fill="#ffffff" d="M649.846 12.308v683.077c1.005 9.204 1.579 19.879 1.579 30.688 0 165.176-133.901 299.077-299.077 299.077-9.221 0-18.345-0.417-27.354-1.234-6.61 0.797-15.646 1.202-24.776 1.202-166.535 0-301.538-135.003-301.538-301.538 0-9.928 0.48-19.743 1.417-29.425l147.596 1.23c0 60.308 0 206.769 178.462 206.769s174.769-146.462 174.769-206.769v-683.077z"></path>
<path fill="#ffffff" d="M3692.308 1011.692h-176l-535.385-796.308v796.308h-150.154v-999.385h178.462l536.615 795.077v-795.077h146.462z"></path>
<path fill="#ffffff" d="M4598.154 1011.692h-147.692v-999.385h147.692z"></path>
<path fill="#ffffff" d="M6046.769 839.385c-64.863 111.842-184.027 185.86-320.479 185.86-10.662 0-21.218-0.452-31.651-1.338-144.896-0.924-276.184-64.157-367.509-164.427l98.1-98.864c60.112 85.996 158.655 141.544 270.171 141.544 0.643 0 1.286-0.002 1.928-0.006 7.633 1.019 16.574 1.6 25.65 1.6 79.938 0 149.344-45.094 184.167-111.232 6.309-16.513 9.645-34.282 9.645-52.83s-3.336-36.317-9.44-52.739c-27.967-76.492-105.505-93.722-213.813-122.030s-263.385-72.615-310.154-204.308c-9.633-25.993-15.206-56.019-15.206-87.346 0-45.118 11.56-87.536 31.881-124.453 63.020-89.991 167.57-148.999 285.901-148.999 3.963 0 7.911 0.066 11.843 0.198-0.435-0.015-0.273-0.015-0.11-0.015 146.548 0 278.141 64.033 368.326 165.646l-96.788 97.739c-62.127-84.357-160.55-138.865-271.771-140.305-65.884 1.105-123.586 34.176-158.576 84.282-10.802 20.42-16.893 43.857-16.893 68.716 0 15.676 2.422 30.787 6.913 44.978 26.789 72.791 101.866 90.022 208.943 122.022 123.077 38.154 269.538 67.692 320 203.077 8.040 24.528 12.676 52.756 12.676 82.067 0 40.264-8.748 78.484-24.448 112.863z"></path>
<path fill="#ffffff" d="M1760 12.308h-91.077l-409.846 998.154h160l98.462-260.923 46.769-121.846 150.154-395.077 148.923 395.077h-1.231l48 121.846 11.077 28.308 2.462 8.615 86.154 224h160l-409.846-998.154z"></path>
</svg>
