<?xml version="1.0" encoding="utf-8"?>
<!-- Generator: Adobe Illustrator 22.0.1, SVG Export Plug-In . SVG Version: 6.00 Build 0)  -->
<svg version="1.1" id="Layer_1" xmlns="http://www.w3.org/2000/svg" xmlns:xlink="http://www.w3.org/1999/xlink" x="0px" y="0px"
	 viewBox="0 0 24 24" style="enable-background:new 0 0 24 24;" xml:space="preserve">
<style type="text/css">
	.st0{fill:#221A1C;}
	.st1{fill:#231F20;}
	.st2{fill:none;}
</style>
<path d="M21.41929,9.8879C20.94566,9.321,20.2523,8.9963,19.51646,8.9963h-5.51123v-5.5c0-0.27637-0.22363-0.5-0.5-0.5h-2
	c-0.21533,0-0.40625,0.1377-0.47412,0.3418L9.09116,9.15792l-2.08594,1.40045V10.4963c0-0.27637-0.22363-0.5-0.5-0.5h-4
	c-0.27637,0-0.5,0.22363-0.5,0.5v9c0,0.27637,0.22363,0.5,0.5,0.5h4c0.27637,0,0.5-0.22363,0.5-0.5v-0.06201l2.19971,1.47705
	c0.08252,0.05518,0.17969,0.08496,0.27881,0.08496h8.76904c1.20215,0,2.23047-0.86328,2.4458-2.05322l1.26367-7
	C22.09458,11.20821,21.89683,10.45919,21.41929,9.8879z M6.00523,18.9963h-3v-8h3v0.5v7V18.9963z M20.97788,11.76534l-1.26367,7
	c-0.12891,0.71338-0.74365,1.23096-1.46143,1.23096h-8.6167l-2.63086-1.7666v-6.4668l2.68164-1.80078
	C9.82261,9.90938,9.9315,9.79854,9.97935,9.6545l1.88623-5.6582h1.13965v5.5c0,0.27637,0.22363,0.5,0.5,0.5h6.01123
	c0.43896,0,0.85254,0.19434,1.13525,0.53271C20.93882,10.87227,21.05796,11.32296,20.97788,11.76534z"/>
</svg>
