<?xml version="1.0" encoding="utf-8"?>
<!-- Generator: Adobe Illustrator 22.0.1, SVG Export Plug-In . SVG Version: 6.00 Build 0)  -->
<svg version="1.1" id="Layer_1" xmlns="http://www.w3.org/2000/svg" xmlns:xlink="http://www.w3.org/1999/xlink" x="0px" y="0px"
	 viewBox="0 0 24 24" style="enable-background:new 0 0 24 24;" xml:space="preserve">
<style type="text/css">
	.st0{fill:#221A1C;}
	.st1{fill:#231F20;}
</style>
<path d="M17.71642,4.45901C16.20372,2.87405,14.192,2.0015,12.05236,2.0015c-2.14014,0-4.15186,0.87256-5.66455,2.45752
	c-3.10742,3.25928-3.10742,8.56055,0,11.81787l5.30273,5.55859c0.09424,0.09863,0.2251,0.15479,0.36182,0.15479
	s0.26758-0.05615,0.36182-0.15479l5.30225-5.55859C20.82579,13.01956,20.82579,7.71829,17.71642,4.45901z M16.99279,15.58646
	l-4.94043,5.1792l-4.94092-5.1792c-2.74463-2.87646-2.74463-7.55859,0-10.43701C8.43322,3.76419,10.1881,3.0015,12.05236,3.0015
	c1.86377,0,3.61865,0.7627,4.94043,2.14795C19.73888,8.02786,19.73937,12.70999,16.99279,15.58646z M12.04405,6.98343
	c-1.6543,0-3,1.3457-3,3s1.3457,3,3,3s3-1.3457,3-3S13.69835,6.98343,12.04405,6.98343z M12.04405,11.98343
	c-1.10303,0-2-0.89697-2-2s0.89697-2,2-2s2,0.89697,2,2S13.14708,11.98343,12.04405,11.98343z"/>
</svg>
