
<svg version="1.1" id="Layer_1" xmlns="http://www.w3.org/2000/svg" xmlns:xlink="http://www.w3.org/1999/xlink" x="0px" y="0px"
	 viewBox="0 0 24 24" style="enable-background:new 0 0 24 24; fill:white" xml:space="preserve">
<style type="text/css">
	.st0{fill:#221A1C;}
	.st1{fill:#231F20;}
</style>
<path d="M13.63872,3.80664L13.60568,3.8183l-0.01458,11.47299c-0.00097,1.07224-0.0379,2.21249-0.46834,3.32505
	c-0.09231,0.24097-0.20016,0.47077-0.32162,0.68454c-0.65976-0.24826-1.1903-0.67531-1.53621-1.23742
	c-0.48875-0.79143-0.76568-1.81168-0.84632-3.1176l-0.02332-0.89442l-0.95127,0.31968l-0.02261,0.00775l-0.0386,0.00974
	l-4.1811,1.46334l-0.04178,0.01409l0.00097,0.03644c0.06899,3.43437,1.3788,5.56961,3.68554,6.01221
	c0.34689,0.06607,0.70252,0.0996,1.05621,0.0996c0.75499,0,1.47499-0.1579,2.02787-0.44454
	c0.49069-0.25506,0.92989-0.62624,1.30592-1.10284c0.2915,0.05344,0.59077,0.08065,0.88811,0.08065h0.01846
	c0.51887-0.00146,1.28843-0.08162,2.00941-0.4562c0.93183-0.48389,1.67127-1.3788,2.13865-2.58804
	c0.49069-1.27046,0.53345-2.51905,0.53539-3.68895l0.01166-9.80803l0.00194-2.02059L13.63872,3.80664z M17.82662,3.41408
	l-0.0136,10.39881c-0.00097,1.0737-0.0379,2.21492-0.46737,3.32554c-0.26332,0.68017-0.7647,1.58868-1.66058,2.05411
	c-0.4217,0.21863-0.9707,0.34057-1.54593,0.34251h-0.01458c-0.09231,0-0.1885-0.00437-0.29442-0.01215
	c0.08842-0.17684,0.1681-0.35855,0.23806-0.54122c0.49264-1.27532,0.53442-2.52197,0.53539-3.68943l0.0136-10.75444
	L17.82662,3.41408z M12.1783,20.13798c-0.22057,0.22154-0.46154,0.40081-0.71612,0.53248
	c-0.6277,0.32697-1.53524,0.41928-2.42432,0.24875c-1.16503-0.22348-2.60116-1.17669-2.83728-4.44442l3.23177-1.13977
	c0.1166,1.32681,0.43434,2.39371,0.96973,3.26044C10.81602,19.26688,11.42914,19.79886,12.1783,20.13798z"/>
</svg>
