<?xml version="1.0" encoding="utf-8"?>
<!-- Generator: Adobe Illustrator 22.0.1, SVG Export Plug-In . SVG Version: 6.00 Build 0)  -->
<svg version="1.1" id="Layer_1" xmlns="http://www.w3.org/2000/svg" xmlns:xlink="http://www.w3.org/1999/xlink" x="0px" y="0px"
	 viewBox="0 0 24 24" style="enable-background:new 0 0 24 24;" xml:space="preserve">
<style type="text/css">
	.st0{fill:#221A1C;}
	.st1{fill:#231F20;}
</style>
<path d="M16.03185,13.00704l-0.24365,0.06445c-1.46875,0.38721-2.16943,1.76807-2.45752,2.5625
	c-2.65918-1.25928-4.30664-4.40771-4.90088-5.72705c1.61475-0.354,2.35742-1.86426,2.53125-2.71094l0.03906-0.18994l-2.98535-5.0127
	h-2L3.03087,4.02022L3.01427,4.2629C2.5382,11.24776,5.79454,15.53048,5.92052,15.6921
	c4.23682,5.96582,10.99805,6.31689,12.52734,6.31689c0.1665,0,0.271-0.00439,0.30322-0.00586l0.25244-0.01172l2.01807-3.03125
	v-1.9541L16.03185,13.00704z M20.0216,18.65743l-1.56348,2.34863c-1.33789-0.01172-7.79736-0.36621-11.73486-5.91016
	C6.692,15.05587,3.6378,11.03975,3.99718,4.57296l2.3252-1.57959H7.4464l2.48828,4.17871
	C9.78624,7.66134,9.24327,8.98263,7.71007,8.98263H6.99523l0.24512,0.67139c0.0835,0.22803,2.08788,5.60449,6.23682,7.12451
	l0.54102,0.19873l0.12012-0.56396c0.00391-0.01904,0.39258-1.78125,1.67578-2.29883l4.20752,3.37207V18.65743z"/>
</svg>
