<?xml version="1.0" encoding="utf-8"?>
<!-- Generator: Adobe Illustrator 22.0.1, SVG Export Plug-In . SVG Version: 6.00 Build 0)  -->
<svg version="1.1" id="Layer_1" xmlns="http://www.w3.org/2000/svg" xmlns:xlink="http://www.w3.org/1999/xlink" x="0px" y="0px"
	 viewBox="0 0 24 24" style="enable-background:new 0 0 24 24;" xml:space="preserve">
<style type="text/css">
	.st0{fill:#221A1C;}
	.st1{fill:#231F20;}
</style>
<path class="st1" d="M16.54308,4.46407c-3.32422-3.32422-8.73389-3.32422-12.05811,0s-3.32422,8.73389,0,12.05811
	c1.66211,1.66211,3.84521,2.49316,6.02881,2.49316s4.36719-0.83105,6.0293-2.49316
	C19.8673,13.19796,19.8673,7.78829,16.54308,4.46407z M15.83605,15.81515c-2.93604,2.93359-7.71094,2.93359-10.64404,0
	c-2.93408-2.93457-2.93408-7.70947,0-10.64404c1.46729-1.46729,3.39453-2.20068,5.32178-2.20068s3.85498,0.7334,5.32227,2.20068
	C18.77013,8.10567,18.77013,12.88058,15.83605,15.81515z M21.99065,19.99575l-2.0105,2.01056l-3.01373-3.01379l2.0105-2.0105
	L21.99065,19.99575z M14.03429,7.67696l-2.82556,2.82556l2.80701,2.80725l-0.70703,0.70703l-2.80701-2.80725L7.7003,14.01095
	l-0.70703-0.70703l2.80139-2.80139l-2.7804-2.78064L7.7213,7.01485l2.7804,2.78064l2.82556-2.82556L14.03429,7.67696z"/>
</svg>
