<?xml version="1.0" encoding="utf-8"?>
<!-- Generator: Adobe Illustrator 22.0.1, SVG Export Plug-In . SVG Version: 6.00 Build 0)  -->
<svg version="1.1" id="Layer_1" xmlns="http://www.w3.org/2000/svg" xmlns:xlink="http://www.w3.org/1999/xlink" x="0px" y="0px"
	 viewBox="0 0 24 24" style="enable-background:new 0 0 24 24; fill: #939598;" xml:space="preserve">
<style type="text/css">
	.st0{fill:#221A1C;}
	.st1{fill:#231F20;}
</style>
<path d="M16.50762,4.45804c-1.60645-1.60645-3.74219-2.49121-6.01465-2.49121c-2.27148,0-4.40723,0.88477-6.01367,2.49121
	s-2.49219,3.74268-2.49219,6.01465s0.88574,4.4082,2.49219,6.01465s3.74219,2.49121,6.01367,2.49121
	c2.27246,0,4.4082-0.88477,6.01465-2.49121s2.49121-3.74268,2.49121-6.01465S18.11406,6.06448,16.50762,4.45804z M15.80058,15.7803
	c-1.41797,1.41748-3.30176,2.19824-5.30762,2.19824c-2.00488,0-3.88867-0.78076-5.30664-2.19824
	c-1.41797-1.41797-2.19922-3.30273-2.19922-5.30762s0.78125-3.88965,2.19922-5.30762
	c1.41797-1.41748,3.30176-2.19824,5.30664-2.19824c2.00586,0,3.88965,0.78076,5.30762,2.19824
	c1.41797,1.41797,2.19824,3.30273,2.19824,5.30762S17.21855,14.36234,15.80058,15.7803z M21.99065,19.99576l-2.0105,2.01056
	l-3.01373-3.01379l2.0105-2.0105L21.99065,19.99576z"/>
</svg>
