<?xml version="1.0" encoding="utf-8"?>
<!-- Generator: Adobe Illustrator 22.0.1, SVG Export Plug-In . SVG Version: 6.00 Build 0)  -->
<svg version="1.1" id="Layer_1" xmlns="http://www.w3.org/2000/svg" xmlns:xlink="http://www.w3.org/1999/xlink" x="0px" y="0px"
	 viewBox="0 0 24 24" style="enable-background:new 0 0 24 24;" xml:space="preserve">
<style type="text/css">
	.st0{fill:#221A1C;}
	.st1{fill:#231F20;}
</style>
<path d="M8.01019,16.9963c-1.10693,0-2.00781,0.90088-2.00781,2.00781s0.90088,2.00781,2.00781,2.00781
	s2.00781-0.90088,2.00781-2.00781S9.11712,16.9963,8.01019,16.9963z M8.01019,20.01192c-0.55566,0-1.00781-0.45215-1.00781-1.00781
	s0.45215-1.00781,1.00781-1.00781S9.018,18.44845,9.018,19.00411S8.56586,20.01192,8.01019,20.01192z M16.81586,17.00558
	c-1.10156,0.10693-1.91113,1.09033-1.80469,2.19238c0.10059,1.03613,0.97705,1.81396,1.99805,1.81396
	c0.06396,0,0.12891-0.00293,0.19434-0.00928c1.10156-0.10693,1.91113-1.09033,1.80469-2.19189c0-0.00049,0-0.00049,0-0.00049
	C18.9013,17.70968,17.92669,16.90206,16.81586,17.00558z M17.10736,20.00753c-0.56201,0.04785-1.04688-0.35303-1.10107-0.90576
	c-0.05322-0.55322,0.35303-1.04736,0.90576-1.10107c0.0332-0.00293,0.06543-0.00439,0.09766-0.00439
	c0.5127,0,0.95264,0.39062,1.00342,0.91064C18.06634,19.46017,17.65961,19.95382,17.10736,20.00753z M21.10687,8.37227
	c-0.96436-0.94482-2.34863-0.93115-2.40137-0.92822h-3.95264c-0.01147,0-0.02106,0.0058-0.03235,0.00653l0.27356-3.92548
	c0.00928-0.13818-0.03906-0.27441-0.1333-0.37549c-0.09473-0.10156-0.22705-0.15918-0.36572-0.15918H3.48529
	c-0.26367,0-0.48193,0.20459-0.49902,0.46777L2.01654,18.45235c-0.00879,0.1377,0.03955,0.27344,0.13428,0.37402
	c0.09424,0.10107,0.22656,0.1582,0.36475,0.1582h1.99902c0.27637,0,0.5-0.22363,0.5-0.5s-0.22363-0.5-0.5-0.5H3.04877
	L3.95404,3.99044h10.00488l-0.9751,13.99414h-1.46924c-0.27637,0-0.5,0.22363-0.5,0.5s0.22363,0.5,0.5,0.5h1.93555
	c0.2627,0,0.48047-0.20312,0.49902-0.46533l0.70355-10.0954c0.03345,0.00702,0.06464,0.0202,0.10016,0.0202h3.96289
	c-0.00635-0.00391,1.03516-0.00049,1.69141,0.64258c0.23608,0.23138,0.39313,0.53241,0.48773,0.88483l-2.39252,0.00238
	c-0.27588,0.00049-0.49951,0.22412-0.49951,0.5v2.99268c0,0.13281,0.05273,0.25977,0.14648,0.354
	c0.09375,0.09326,0.22119,0.146,0.35352,0.146h0.00049l2.49414-0.00293v4.021h-0.50049c-0.27637,0-0.5,0.22363-0.5,0.5
	s0.22363,0.5,0.5,0.5h1.00049c0.27637,0,0.5-0.22363,0.5-0.5v-7.74854C21.9975,9.74679,21.69769,8.95138,21.10687,8.37227z
	 M19.00287,12.96602v-1.99268l1.99463-0.00201v1.99225L19.00287,12.96602z"/>
</svg>
