<?xml version="1.0" encoding="utf-8"?>
<!-- Generator: Adobe Illustrator 22.0.1, SVG Export Plug-In . SVG Version: 6.00 Build 0)  -->
<svg version="1.1" id="Layer_1" xmlns="http://www.w3.org/2000/svg" xmlns:xlink="http://www.w3.org/1999/xlink" x="0px" y="0px"
	 viewBox="0 0 24 24" style="enable-background:new 0 0 24 24;fill:#08C4C4;" xml:space="preserve">
<style type="text/css">
	.st0{fill:#221A1C;}
	.st1{fill:#231F20;}
</style>
<path d="M20.92515,17.76192c-0.0957,0.14795-0.25586,0.22852-0.41992,0.22852c-0.09375,0-0.1875-0.02588-0.27148-0.08008
	l-2.68878-1.73682l-0.01337,2.32422c-0.00195,0.2749-0.22559,0.49707-0.5,0.49707c-0.00098,0-0.00195,0-0.00293,0
	c-0.27637-0.00146-0.49902-0.22656-0.49707-0.50293l0.01715-2.96191l-4.0484-2.61505v4.83698l2.46875,1.58862
	c0.23242,0.14941,0.2998,0.45898,0.15039,0.69092c-0.14941,0.23242-0.45898,0.29883-0.69141,0.1499l-1.92773-1.2403v2.56012
	c0,0.27637-0.22363,0.5-0.5,0.5s-0.5-0.22363-0.5-0.5v-2.56055l-1.93066,1.24072c-0.08398,0.0542-0.17773,0.07959-0.27051,0.07959
	c-0.16406,0-0.3252-0.08105-0.4209-0.22949c-0.14941-0.23242-0.08203-0.54199,0.15039-0.69092l2.47168-1.58881v-4.8349
	l-4.04553,2.61322l0.01624,2.96185c0.00195,0.27637-0.2207,0.50146-0.49707,0.50293c-0.00098,0-0.00195,0-0.00293,0
	c-0.27539,0-0.49805-0.22217-0.5-0.49707l-0.01257-2.3241l-2.6886,1.73669c-0.08398,0.0542-0.17773,0.08008-0.27148,0.08008
	c-0.16406,0-0.32422-0.08057-0.41992-0.22852c-0.15039-0.23193-0.08301-0.5415,0.14844-0.69141l2.65839-1.71716l-2.06464-0.92981
	c-0.25195-0.11328-0.36426-0.40967-0.25098-0.66113c0.11426-0.25342,0.41309-0.36328,0.66113-0.25098l2.65503,1.19556
	l4.1944-2.70935L6.89085,9.29152l-2.66394,1.19696c-0.06641,0.02979-0.13672,0.04395-0.20508,0.04395
	c-0.19043,0-0.37305-0.10986-0.45605-0.29492C3.45249,9.98556,3.5648,9.68966,3.81675,9.57638l2.07324-0.9314l-2.6582-1.71704
	c-0.23145-0.1499-0.29883-0.45947-0.14844-0.69141c0.15039-0.23291,0.45996-0.29785,0.69141-0.14844l2.68042,1.73145
	l0.01099-2.31689c0.00098-0.27539,0.22461-0.49756,0.5-0.49756c0.00098,0,0.00195,0,0.00195,0
	c0.27637,0.00146,0.49902,0.22607,0.49805,0.50244l-0.0144,2.95575l4.04858,2.61517V6.25002L9.02866,4.65987
	c-0.23242-0.14941-0.2998-0.4585-0.15039-0.69092c0.15039-0.23242,0.45898-0.29883,0.69141-0.1499l1.93066,1.24188V2.49923
	c0-0.27637,0.22363-0.5,0.5-0.5s0.5,0.22363,0.5,0.5v2.56128l1.92773-1.24146c0.23242-0.1499,0.54199-0.08301,0.69043,0.1499
	c0.15039,0.23193,0.08301,0.5415-0.14941,0.69092l-2.46875,1.58997v4.83051l4.05151-2.61707l-0.0144-2.95575
	c-0.00098-0.27637,0.22168-0.50098,0.49805-0.50244c0,0,0.00098,0,0.00195,0c0.27539,0,0.49902,0.22217,0.5,0.49756l0.01099,2.31689
	l2.68042-1.73145c0.23145-0.14844,0.54199-0.0835,0.69141,0.14844c0.15039,0.23193,0.08301,0.5415-0.14844,0.69141L18.11344,8.6451
	l2.07245,0.93176c0.25195,0.11328,0.36426,0.40918,0.25098,0.66113c-0.08301,0.18506-0.26562,0.29492-0.45605,0.29492
	c-0.06836,0-0.13867-0.01416-0.20508-0.04395l-2.66309-1.19739l-4.18927,2.70605l4.19397,2.70911l2.65546-1.19531
	c0.25-0.1123,0.54785-0.00244,0.66113,0.25098c0.11328,0.25146,0.00095,0.54785-0.25098,0.66113l-2.065,0.92957l2.65875,1.71741
	C21.00816,17.22042,21.07554,17.52999,20.92515,17.76192z"/>
</svg>
