<?xml version="1.0" encoding="utf-8"?>
<!-- Generator: Adobe Illustrator 22.0.1, SVG Export Plug-In . SVG Version: 6.00 Build 0)  -->
<svg version="1.1" id="Layer_1" xmlns="http://www.w3.org/2000/svg" xmlns:xlink="http://www.w3.org/1999/xlink" x="0px" y="0px"
	 viewBox="0 0 24 24" style="enable-background:new 0 0 24 24; fill:white;" xml:space="preserve">
<style type="text/css">
	.st0{fill:#221A1C;}
	.st1{fill:#231F20;}
</style>
<path d="M16.51933,3.00608H7.48027c-2.47168,0-4.4834,2.00732-4.4834,4.47461v9.03857c0,2.46777,2.01172,4.4751,4.4834,4.4751
	h9.03906c2.46777,0,4.47461-2.00732,4.47461-4.4751V7.48069C20.99394,5.0134,18.98711,3.00608,16.51933,3.00608z M19.99394,16.51926
	c0,1.94873-1.52637,3.4751-3.47461,3.4751H7.48027c-1.9209,0-3.4834-1.55908-3.4834-3.4751V7.48069
	c0-1.91602,1.5625-3.47461,3.4834-3.47461h9.03906c1.94824,0,3.47461,1.52637,3.47461,3.47461V16.51926z M17.98223,8.73752
	l0.02344,2.75732c0.00195,0.27588-0.2207,0.50146-0.49609,0.50342c-0.00195,0-0.00293,0-0.00391,0
	c-0.27441,0-0.49805-0.22168-0.5-0.49658l-0.0127-1.80792l-3.16113,3.16193c-0.16895,0.16992-0.43457,0.1958-0.63281,0.06104
	l-2.62793-1.77002l-3.71387,3.70361c-0.09766,0.09717-0.22559,0.146-0.35352,0.146s-0.25684-0.04883-0.35449-0.14697
	c-0.19434-0.19531-0.19434-0.51221,0.00098-0.70703l4.00586-3.99414c0.16992-0.16797,0.43555-0.19482,0.63281-0.06055
	l2.62695,1.76953l2.86072-2.86115l-1.77478,0.00421c-0.27637,0-0.5-0.22363-0.5-0.5s0.22363-0.5,0.5-0.5h2.86621
	C17.79375,8.0637,18.02812,8.3845,17.98223,8.73752z"/>
</svg>
