<?xml version="1.0" encoding="utf-8"?>
<!-- Generator: Adobe Illustrator 22.0.1, SVG Export Plug-In . SVG Version: 6.00 Build 0)  -->
<svg version="1.1" id="Layer_1" xmlns="http://www.w3.org/2000/svg" xmlns:xlink="http://www.w3.org/1999/xlink" x="0px" y="0px"
	 viewBox="0 0 24 24" style="enable-background:new 0 0 24 24;" xml:space="preserve">
<style type="text/css">
	.st0{fill:#221A1C;}
	.st1{fill:#231F20;}
</style>
<g>
	<path d="M18.99186,20.99756h-2.98242v-6.50911c0-0.27588-0.22363-0.49951-0.49951-0.5l-7.01758-0.00684H8.49186
		c-0.13232,0-0.25977,0.05273-0.35352,0.14648s-0.14648,0.2207-0.14648,0.35352v6.51204H4.99381V12.0112h-1v9.48245
		c0,0.27637,0.22363,0.5,0.5,0.5h4.49805v-0.20312v-0.79688V14.9821l6.01758,0.00586v6.0096v0.7998v0.2002h4.48242
		c0.27637,0,0.5-0.22363,0.5-0.5v-9.48245h-1V20.99756z"/>
	<path d="M4.01865,11.01404l0.91418-4.00989l3.06274,0.00159l-1.0022,4.0083h1.0274l1.00513-4.00775l2.48016,0.00128v4.00647h1
		V7.00806l2.49982,0.00134l0.95319,4.00439h1.0274l-0.95251-4.00391l3.06506,0.00159l0.88239,4.00256H21.009l-0.99805-4.51227
		V2.51025c0-0.27588-0.22363-0.5-0.49951-0.5L4.50168,2.00244c-0.00049,0-0.00049,0-0.00049,0
		c-0.13232,0-0.25977,0.05273-0.35352,0.14648s-0.14648,0.2207-0.14648,0.35352v4.00146c0,0.01624,0.00769,0.02991,0.00922,0.04578
		L2.991,11.01404H4.01865z M5.00119,3.00293l14.00977,0.00684v3.00146L5.00119,6.00439V3.00293z"/>
	<rect x="11.00358" y="18.00342" width="1.99268" height="1"/>
</g>
</svg>
