<?xml version="1.0" encoding="utf-8"?>
<!-- Generator: Adobe Illustrator 22.0.1, SVG Export Plug-In . SVG Version: 6.00 Build 0)  -->
<svg version="1.1" id="Layer_1" xmlns="http://www.w3.org/2000/svg" xmlns:xlink="http://www.w3.org/1999/xlink" x="0px" y="0px"
	 viewBox="0 0 24 24" style="enable-background:new 0 0 24 24;" xml:space="preserve">
<style type="text/css">
	.st0{fill:#221A1C;}
	.st1{fill:#231F20;}
</style>
<path d="M7.99719,8.98452c1.65149,0,2.99567,1.34375,2.99567,2.99567c0,1.65155-1.34418,2.99524-2.99567,2.99524
	s-2.99567-1.34369-2.99567-2.99524C5.00152,10.32827,6.3457,8.98452,7.99719,8.98452z M18.99286,11.97793
	c0,1.65155-1.34418,2.99524-2.99567,2.99524s-2.99567-1.34369-2.99567-2.99524c0-1.65192,1.34418-2.99567,2.99567-2.99567
	S18.99286,10.32601,18.99286,11.97793z M17.99286,11.97793c0-1.1004-0.89526-1.99567-1.99567-1.99567
	c-1.10046,0-1.99567,0.89526-1.99567,1.99567c0,1.10022,0.8952,1.99524,1.99567,1.99524
	C17.0976,13.97317,17.99286,13.07815,17.99286,11.97793z M5.89075,5.8044c1.39795-1.78564,3.68213-2.85205,6.10938-2.85205
	c2.17761,0,4.19818,0.92041,5.63721,2.52765l-2.22022,0.48651c-0.27002,0.05908-0.44043,0.32568-0.38135,0.59521
	c0.05127,0.23389,0.25781,0.39307,0.48779,0.39307c0.03564,0,0.07129-0.00391,0.10742-0.01172l2.82227-0.61816
	c0.31934-0.03662,0.56934-0.30273,0.58105-0.65381l-0.04297-3.18701c-0.00391-0.27393-0.22705-0.49316-0.5-0.49316
	c-0.00195,0-0.00439,0-0.00684,0c-0.27588,0.00391-0.49707,0.23047-0.49316,0.50684l0.02631,1.92523
	c-1.5976-1.57837-3.73279-2.47064-6.01752-2.47064c-2.73242,0-5.31055,1.20947-6.89648,3.23584
	C4.93323,5.40548,4.97131,5.71993,5.18909,5.88985C5.40539,6.05977,5.72034,6.02071,5.89075,5.8044z M18.12512,18.15108
	c-1.39795,1.78564-3.68213,2.85205-6.10938,2.85205c-2.17761,0-4.19818-0.92041-5.63721-2.52765l2.22021-0.48651
	c0.27002-0.05908,0.44043-0.32568,0.38135-0.59521c-0.05908-0.27002-0.3252-0.44092-0.59521-0.38135l-2.82178,0.61816
	c-0.32178,0.03613-0.57178,0.30371-0.58154,0.65381l0.04297,3.18701c0.00391,0.27393,0.22705,0.49316,0.5,0.49316
	c0.00195,0,0.00439,0,0.00684,0c0.27588-0.00391,0.49707-0.23047,0.49316-0.50684l-0.02631-1.92523
	c1.5976,1.57837,3.73279,2.47064,6.01752,2.47064c2.73242,0,5.31055-1.20947,6.89649-3.23584
	c0.17041-0.21729,0.13232-0.53174-0.08545-0.70166C18.60901,17.89425,18.29456,17.93331,18.12512,18.15108z"/>
</svg>
