<?xml version="1.0" encoding="utf-8"?>
<!-- Generator: Adobe Illustrator 22.0.1, SVG Export Plug-In . SVG Version: 6.00 Build 0)  -->
<svg version="1.1" id="Layer_1" xmlns="http://www.w3.org/2000/svg" xmlns:xlink="http://www.w3.org/1999/xlink" x="0px" y="0px"
	 viewBox="0 0 24 24" style="enable-background:new 0 0 24 24;" xml:space="preserve">
<style type="text/css">
	.st0{fill:#221A1C;}
	.st1{fill:#231F20;}
</style>
<path d="M19.57261,1.97952H4.37241c-0.76855,0-1.39355,0.625-1.39355,1.39355v17.25391c0,0.76855,0.625,1.39355,1.39355,1.39355
	h15.2002c0.76855,0,1.39355-0.625,1.39355-1.39355V3.37308C20.96616,2.60452,20.34116,1.97952,19.57261,1.97952z M19.96616,20.62698
	c0,0.21338-0.18066,0.39355-0.39355,0.39355H4.37241c-0.21289,0-0.39355-0.18018-0.39355-0.39355V3.37308
	c0-0.2168,0.17676-0.39355,0.39355-0.39355h15.2002c0.2168,0,0.39355,0.17676,0.39355,0.39355V20.62698z M8.99155,8.00198h2.00195v1
	H8.99155v1.99414h-1V9.00198H5.9896v-1h2.00195v-2h1V8.00198z M8.70029,16.00565l1.30005,1.30005l-0.70703,0.70703l-1.30005-1.30005
	l-1.29468,1.29468l-0.70703-0.70703l1.29468-1.29468l-1.30054-1.30054l0.70703-0.70703l1.30054,1.30054l1.29907-1.29907
	l0.70703,0.70703L8.70029,16.00565z M12.99741,8.00198h5.00098v1h-5.00098V8.00198z M12.99741,16.99026h4.99414v1h-4.99414V16.99026
	z M12.99741,13.99026h4.99414v1h-4.99414V13.99026z"/>
</svg>
