<?xml version="1.0" encoding="utf-8"?>
<!-- Generator: Adobe Illustrator 22.0.1, SVG Export Plug-In . SVG Version: 6.00 Build 0)  -->
<svg version="1.1" id="Layer_1" xmlns="http://www.w3.org/2000/svg" xmlns:xlink="http://www.w3.org/1999/xlink" x="0px" y="0px"
	 viewBox="0 0 24 24" style="enable-background:new 0 0 24 24; fill: #DDDFE2;" xml:space="preserve">
<style type="text/css">
	.st0{fill:#221A1C;}
	.st1{fill:#231F20;}
</style>
<path d="M19.99896,5.49026c0,0.27637-0.22363,0.5-0.5,0.5H4.50091c-0.27637,0-0.5-0.22363-0.5-0.5s0.22363-0.5,0.5-0.5h14.99805
	C19.77533,4.99026,19.99896,5.2139,19.99896,5.49026z M9.50287,4.01907c0.27637,0,0.5-0.22363,0.5-0.5V2.98392l3.99414-0.00439
	V3.5137c0,0.27637,0.22363,0.5,0.5,0.5s0.5-0.22363,0.5-0.5V2.47903c0-0.13281-0.05273-0.25977-0.14648-0.35352
	s-0.22119-0.14648-0.35352-0.14648h-0.00049L9.50238,1.98441c-0.27588,0.00049-0.49951,0.22412-0.49951,0.5v1.03467
	C9.00287,3.79544,9.2265,4.01907,9.50287,4.01907z M18.57757,8.00003c-0.27002-0.04004-0.52832,0.14404-0.57178,0.4165
	l-1.979,12.55859H7.96185L5.99701,8.4014C5.95502,8.12894,5.7016,7.94339,5.42572,7.98441
	C5.15277,8.02737,4.96625,8.28275,5.00873,8.55569l2.03125,12.99658c0.03809,0.24365,0.24805,0.42285,0.49414,0.42285h8.91992
	c0.24609,0,0.45557-0.1792,0.49414-0.42236l2.0459-12.98096C19.03705,8.29935,18.85052,8.04349,18.57757,8.00003z
	 M10.50238,18.99612c0.01855,0,0.0376-0.00098,0.05664-0.00342c0.27441-0.03076,0.47168-0.27832,0.44092-0.55273L9.97796,9.41946
	C9.94671,9.14505,9.70062,8.9429,9.42523,8.97903C9.15082,9.0098,8.95355,9.25735,8.98431,9.53177l1.02197,9.02051
	C10.03509,18.80765,10.2514,18.99612,10.50238,18.99612z M13.48578,18.99612c0.25146,0,0.46777-0.18896,0.49658-0.44434
	l1.00781-8.99805c0.03076-0.27441-0.16699-0.52197-0.44141-0.55273c-0.27393-0.02637-0.52148,0.16748-0.55273,0.44141
	l-1.00781,8.99805c-0.03076,0.27441,0.16699,0.52197,0.44141,0.55273C13.44867,18.99515,13.46722,18.99612,13.48578,18.99612z"/>
</svg>
