<svg version="1.1" id="Layer_1" xmlns="http://www.w3.org/2000/svg" xmlns:xlink="http://www.w3.org/1999/xlink" x="0px" y="0px"
	 viewBox="0 0 24 24" style="enable-background:new 0 0 24 24; fill:black;" xml:space="preserve">
<style type="text/css">
	.st0{fill:#221A1C;}
	.st1{fill:#231F20;}
</style>
<g>
	<path d="M12.00016,2.0002c-5.51416,0-10,4.48584-10,10s4.48584,10,10,10s10-4.48584,10-10S17.51432,2.0002,12.00016,2.0002z
		 M12.00016,21.0002c-4.9624,0-9-4.0376-9-9s4.0376-9,9-9s9,4.0376,9,9S16.96256,21.0002,12.00016,21.0002z"/>
	<path d="M17.48014,7.9963h-11c-0.18164,0-0.34912,0.09863-0.43701,0.25732c-0.08838,0.15869-0.0835,0.35303,0.0127,0.50684
		l2.86084,4.59424l2.62891,4.38184c0.08984,0.15039,0.24219,0.2168,0.42871,0.24268c0.17383,0,0.33545-0.09033,0.42676-0.23926
		l5.50537-8.98193c0.09473-0.1543,0.09863-0.34766,0.01025-0.50586S17.66129,7.9963,17.48014,7.9963z M11.97868,16.51436
		l-2.20898-3.68115L7.38053,8.9963h9.20605L11.97868,16.51436z"/>
</g>
</svg>
