<?xml version="1.0" encoding="utf-8"?>
<!-- Generator: Adobe Illustrator 22.0.1, SVG Export Plug-In . SVG Version: 6.00 Build 0)  -->
<svg version="1.1" id="Layer_1" xmlns="http://www.w3.org/2000/svg" xmlns:xlink="http://www.w3.org/1999/xlink" x="0px" y="0px"
	 viewBox="0 0 24 24" style="enable-background:new 0 0 24 24;" xml:space="preserve">
<style type="text/css">
	.st0{fill:#221A1C;}
	.st1{fill:#231F20;}
</style>
<path d="M21.00034,19.45968v1.01904c0,0.27637-0.22363,0.5-0.5,0.5s-0.5-0.22363-0.5-0.5v-1.01904
	c0-2.77441-2.8418-5.39941-5.88086-5.46533l-1.89258,0.95996c-0.14258,0.07227-0.31055,0.07227-0.45312,0l-1.89355-0.95996
	c-3.03906,0.06592-5.87988,2.69092-5.87988,5.46533v1.02197c0,0.27637-0.22363,0.5-0.5,0.5s-0.5-0.22363-0.5-0.5v-1.02197
	c0-3.38428,3.33496-6.4668,6.99707-6.4668c0.07812,0,0.15625,0.01855,0.22656,0.0542l1.77637,0.90088l1.77539-0.90088
	c0.07031-0.03564,0.14844-0.0542,0.22656-0.0542C17.66441,12.99288,21.00034,16.0754,21.00034,19.45968z M8.00913,7.50118
	c0-2.48047,1.79004-4.49854,3.99121-4.49854s3.99121,2.01807,3.99121,4.49854c0,3.71777-2.16992,4.49805-3.99121,4.49805
	S8.00913,11.21895,8.00913,7.50118z M8.98179,7.50118c0,2.40479,0.95898,3.52441,3.01855,3.52441
	c2.05955,0,3.01855-1.11963,3.01855-3.52441c0-1.94385-1.35449-3.5249-3.01855-3.5249S8.98179,5.55733,8.98179,7.50118z"/>
</svg>
