<?xml version="1.0" encoding="utf-8"?>
<!-- Generator: Adobe Illustrator 22.0.1, SVG Export Plug-In . SVG Version: 6.00 Build 0)  -->
<svg version="1.1" id="Layer_1" xmlns="http://www.w3.org/2000/svg" xmlns:xlink="http://www.w3.org/1999/xlink" x="0px" y="0px"
	 viewBox="0 0 24 24" style="enable-background:new 0 0 24 24;fill:#08C4C4;" xml:space="preserve">
<style type="text/css">
	.st0{fill:#221A1C;}
	.st1{fill:#231F20;}
</style>
<g>
	<path d="M20.7735,17.08663c-0.22754-0.15723-0.53711-0.10156-0.69531,0.125c-0.05078,0.07324-1.29102,1.79541-4.15139,1.79541
		c-1.38669,0-2.56931-0.51172-3.71384-1.00684c-1.14062-0.49365-2.32031-1.00391-3.68164-1.00391
		c-2.88281,0-5.25391,2.02002-5.35352,2.10596c-0.20898,0.18066-0.23145,0.49609-0.05078,0.70508
		c0.18066,0.21045,0.49707,0.23096,0.70508,0.05176c0.02148-0.01855,2.18457-1.86279,4.69922-1.86279
		c1.1543,0,2.18945,0.44775,3.28516,0.92188c1.2373,0.53516,2.5166,1.08887,4.11033,1.08887
		c3.4092,0,4.91311-2.13721,4.97463-2.22803C21.05768,17.55196,20.99909,17.24288,20.7735,17.08663z"/>
	<path d="M3.48933,13.0002c0.11621,0,0.23242-0.03955,0.32617-0.12061c0.02246-0.01904,2.2334-1.89453,4.7373-1.89453
		c1.1543,0,2.18945,0.44775,3.28516,0.92188c1.2373,0.53564,2.5166,1.08936,4.11035,1.08936
		c3.41211,0,4.89062-2.14111,4.95215-2.23242c0.1543-0.229,0.09277-0.53955-0.13574-0.69385
		c-0.22754-0.15186-0.53906-0.09326-0.69434,0.13623c-0.01172,0.01758-1.2373,1.79004-4.12207,1.79004
		c-1.38672,0-2.56934-0.51172-3.71387-1.00684c-1.14062-0.49414-2.32031-1.00439-3.68164-1.00439
		c-2.88281,0-5.28906,2.0498-5.39062,2.13721c-0.20801,0.18018-0.23145,0.49561-0.05176,0.70459
		C3.21003,12.94161,3.34968,13.0002,3.48933,13.0002z"/>
	<path d="M3.48933,5.98165c0.11621,0,0.23242-0.03955,0.32617-0.12061C3.83796,5.842,6.0489,3.96651,8.5528,3.96651
		c1.1543,0,2.18945,0.44775,3.28516,0.92188c1.2373,0.53516,2.5166,1.08887,4.11035,1.08887
		c3.40918,0,4.89062-2.10596,4.95117-2.19531c0.15625-0.22705,0.09766-0.53613-0.12793-0.69238
		c-0.22656-0.15625-0.53711-0.10205-0.69531,0.125c-0.05078,0.07178-1.26855,1.7627-4.12793,1.7627
		c-1.38672,0-2.56934-0.51172-3.71387-1.00684C11.09382,3.47677,9.91413,2.96651,8.5528,2.96651
		c-2.88281,0-5.28906,2.0498-5.39062,2.13721C2.95417,5.2839,2.93073,5.59933,3.11042,5.80831
		C3.21003,5.92306,3.34968,5.98165,3.48933,5.98165z"/>
</g>
</svg>
